<?xml version="1.0" encoding="UTF-8"?>
<!-- Generator: Adobe Illustrator 18.0.0, SVG Export Plug-In . SVG Version: 6.00 Build 0)  -->
<!DOCTYPE svg PUBLIC "-//W3C//DTD SVG 1.1//EN" "http://www.w3.org/Graphics/SVG/1.1/DTD/svg11.dtd">
<svg version="1.1" id="Layer_1" xmlns="http://www.w3.org/2000/svg" xmlns:xlink="http://www.w3.org/1999/xlink" x="0px" y="0px" viewBox="0 0 280 80" enable-background="new 0 0 280 80" xml:space="preserve">
<g>
	<path fill="#0081CB" d="M114.8,47.4c-1.6,0-3-0.4-4.1-1.1c-1.1-0.7-2-1.6-2.6-2.8l1.8-1.5c0.7,1,1.4,1.8,2.1,2.3   c0.8,0.5,1.7,0.8,2.8,0.8c1.2,0,2.2-0.4,3-1.3c0.8-0.9,1.2-2.2,1.2-3.9V25.4h2.5v14.5c0,1.3-0.2,2.4-0.5,3.3   c-0.3,1-0.8,1.7-1.4,2.4C118.4,46.8,116.8,47.4,114.8,47.4z"/>
	<path fill="#0081CB" d="M130.9,47.4c-0.7,0-1.5-0.1-2.2-0.3c-0.7-0.2-1.4-0.5-1.9-0.9c-0.6-0.4-1-0.9-1.3-1.5   c-0.3-0.6-0.5-1.3-0.5-2.1v-0.1c0-0.8,0.2-1.6,0.5-2.2c0.3-0.6,0.8-1.1,1.4-1.6c0.6-0.4,1.3-0.7,2.2-1c0.8-0.2,1.7-0.3,2.8-0.3   c1,0,1.9,0.1,2.7,0.2c0.7,0.1,1.5,0.3,2.2,0.5v-0.5c0-1.4-0.4-2.4-1.2-3.1c-0.8-0.7-2-1.1-3.5-1.1c-0.9,0-1.8,0.1-2.6,0.3   c-0.8,0.2-1.5,0.5-2.3,0.8l-0.7-1.9c0.9-0.4,1.8-0.7,2.7-1c0.9-0.2,1.9-0.4,3.1-0.4c2.3,0,4,0.6,5.1,1.7c1.1,1.1,1.7,2.6,1.7,4.5   v9.8h-2.3v-2.6c-0.6,0.7-1.3,1.3-2.2,1.8C133.5,47.1,132.3,47.4,130.9,47.4z M131.4,45.5c0.7,0,1.4-0.1,2.1-0.3   c0.6-0.2,1.2-0.5,1.7-0.8c0.5-0.4,0.9-0.8,1.1-1.3c0.3-0.5,0.4-1.1,0.4-1.7V40c-0.6-0.2-1.3-0.3-2-0.4c-0.8-0.1-1.6-0.2-2.6-0.2   c-1.5,0-2.6,0.3-3.4,0.8c-0.8,0.6-1.2,1.3-1.2,2.2v0.1c0,0.5,0.1,0.9,0.3,1.3c0.2,0.4,0.5,0.7,0.9,1c0.4,0.3,0.8,0.5,1.3,0.6   C130.4,45.4,130.9,45.5,131.4,45.5z"/>
	<path fill="#0081CB" d="M149,47.4c-1.2,0-2.3-0.2-3.5-0.6c-1.2-0.4-2.2-1-3.1-1.7l1.2-1.6c0.9,0.6,1.8,1.1,2.7,1.5   c0.9,0.3,1.9,0.5,2.8,0.5c1,0,1.8-0.2,2.4-0.7c0.6-0.4,0.9-1,0.9-1.8V43c0-0.4-0.1-0.7-0.3-1c-0.2-0.3-0.5-0.5-0.9-0.7   c-0.4-0.2-0.8-0.4-1.3-0.6c-0.5-0.2-1-0.3-1.5-0.4c-0.6-0.2-1.2-0.4-1.9-0.6c-0.6-0.2-1.2-0.5-1.7-0.8c-0.5-0.3-0.9-0.7-1.2-1.2   c-0.3-0.5-0.5-1.1-0.5-1.8v-0.1c0-0.7,0.1-1.3,0.4-1.8c0.3-0.5,0.6-1,1.1-1.4c0.5-0.4,1.1-0.7,1.7-0.9c0.7-0.2,1.4-0.3,2.2-0.3   c1,0,2,0.2,3,0.5c1,0.3,1.9,0.7,2.8,1.2l-1.1,1.7c-0.7-0.5-1.5-0.8-2.3-1.1c-0.8-0.3-1.6-0.4-2.4-0.4c-1,0-1.7,0.2-2.3,0.6   c-0.6,0.4-0.8,1-0.8,1.6v0.1c0,0.4,0.1,0.7,0.3,0.9c0.2,0.3,0.5,0.5,0.9,0.7c0.4,0.2,0.8,0.4,1.3,0.5c0.5,0.2,1,0.3,1.6,0.5   c0.6,0.2,1.2,0.4,1.8,0.6c0.6,0.2,1.2,0.5,1.7,0.8c0.5,0.3,0.9,0.7,1.2,1.2c0.3,0.5,0.4,1.1,0.4,1.8v0.1c0,0.7-0.1,1.4-0.4,2   c-0.3,0.6-0.7,1-1.2,1.4c-0.5,0.4-1.1,0.7-1.8,0.9C150.5,47.3,149.8,47.4,149,47.4z"/>
	<path fill="#0081CB" d="M158,31.4h2.4v3.4c0.3-0.5,0.7-0.9,1.1-1.3c0.4-0.4,0.8-0.8,1.3-1.1c0.5-0.3,1-0.6,1.6-0.7   c0.6-0.2,1.3-0.3,2-0.3c0.9,0,1.9,0.2,2.8,0.5c0.9,0.4,1.7,0.9,2.4,1.6c0.7,0.7,1.3,1.5,1.7,2.5c0.4,1,0.6,2.1,0.6,3.4v0.1   c0,1.2-0.2,2.4-0.6,3.3c-0.4,1-1,1.8-1.7,2.5c-0.7,0.7-1.5,1.2-2.4,1.6c-0.9,0.4-1.8,0.5-2.8,0.5c-0.7,0-1.4-0.1-2-0.3   c-0.6-0.2-1.2-0.4-1.7-0.7c-0.5-0.3-0.9-0.6-1.3-1c-0.4-0.4-0.8-0.8-1.1-1.2v8.3H158V31.4z M166,45.3c0.8,0,1.5-0.1,2.2-0.4   c0.7-0.3,1.3-0.7,1.8-1.2c0.5-0.5,0.9-1.1,1.2-1.8c0.3-0.7,0.4-1.6,0.4-2.5v-0.1c0-0.9-0.1-1.7-0.4-2.5c-0.3-0.7-0.7-1.3-1.2-1.9   c-0.5-0.5-1.1-0.9-1.8-1.2c-0.7-0.3-1.4-0.4-2.1-0.4c-0.7,0-1.4,0.1-2.1,0.4c-0.7,0.3-1.3,0.7-1.8,1.2c-0.5,0.5-1,1.1-1.3,1.9   c-0.3,0.7-0.5,1.5-0.5,2.4v0.1c0,0.9,0.2,1.7,0.5,2.4c0.3,0.7,0.7,1.3,1.3,1.9c0.5,0.5,1.2,0.9,1.8,1.2   C164.6,45.1,165.3,45.3,166,45.3z"/>
	<path fill="#0081CB" d="M179.4,40.3c0.1,0.8,0.3,1.5,0.6,2.2c0.3,0.6,0.7,1.2,1.3,1.6c0.5,0.4,1.1,0.8,1.7,1c0.6,0.2,1.3,0.3,2,0.3   c1.1,0,2.1-0.2,2.8-0.6c0.8-0.4,1.5-0.9,2.2-1.6l1.5,1.3c-0.8,0.9-1.7,1.6-2.7,2.1c-1,0.5-2.3,0.8-3.8,0.8c-1.1,0-2.1-0.2-3.1-0.6   c-1-0.4-1.8-0.9-2.5-1.6c-0.7-0.7-1.3-1.5-1.7-2.5c-0.4-1-0.6-2.1-0.6-3.3c0-1.1,0.2-2.1,0.6-3.1c0.4-1,0.9-1.8,1.6-2.5   c0.7-0.7,1.5-1.3,2.4-1.7c0.9-0.4,1.9-0.6,3.1-0.6c1.2,0,2.2,0.2,3.1,0.6c0.9,0.4,1.7,1,2.3,1.7c0.6,0.7,1.1,1.6,1.4,2.6   c0.3,1,0.5,2,0.5,3.2c0,0.1,0,0.2,0,0.3c0,0.1,0,0.3,0,0.5H179.4z M189.6,38.4c-0.1-0.7-0.2-1.3-0.5-2c-0.2-0.6-0.6-1.2-1-1.6   c-0.4-0.5-0.9-0.8-1.5-1.1c-0.6-0.3-1.3-0.4-2.1-0.4c-0.7,0-1.3,0.1-1.9,0.4c-0.6,0.3-1.1,0.6-1.6,1.1c-0.4,0.5-0.8,1-1.1,1.6   c-0.3,0.6-0.5,1.3-0.6,2H189.6z"/>
	<path fill="#0081CB" d="M196,31.7h2.1v4.1c0.3-0.6,0.6-1.2,1-1.8c0.4-0.5,0.8-1,1.3-1.4c0.5-0.4,1-0.7,1.6-0.9   c0.6-0.2,1.2-0.3,1.9-0.3v2.5h-0.2c-0.8,0-1.5,0.2-2.2,0.5c-0.7,0.3-1.3,0.8-1.8,1.4c-0.5,0.6-0.9,1.4-1.2,2.3   c-0.3,0.9-0.4,1.9-0.4,3.1v6.3H196V31.7z"/>
	<path fill="#0081CB" d="M213.2,47.4c-1.2,0-2.3-0.2-3.5-0.6c-1.2-0.4-2.2-1-3.1-1.7l1.2-1.6c0.9,0.6,1.8,1.1,2.7,1.5   c0.9,0.3,1.9,0.5,2.8,0.5c1,0,1.8-0.2,2.4-0.7c0.6-0.4,0.9-1,0.9-1.8V43c0-0.4-0.1-0.7-0.3-1c-0.2-0.3-0.5-0.5-0.9-0.7   c-0.4-0.2-0.8-0.4-1.3-0.6c-0.5-0.2-1-0.3-1.5-0.4c-0.6-0.2-1.2-0.4-1.9-0.6c-0.6-0.2-1.2-0.5-1.7-0.8c-0.5-0.3-0.9-0.7-1.2-1.2   c-0.3-0.5-0.5-1.1-0.5-1.8v-0.1c0-0.7,0.1-1.3,0.4-1.8c0.3-0.5,0.6-1,1.1-1.4c0.5-0.4,1.1-0.7,1.7-0.9c0.7-0.2,1.4-0.3,2.2-0.3   c1,0,2,0.2,3,0.5c1,0.3,1.9,0.7,2.8,1.2l-1.1,1.7c-0.7-0.5-1.5-0.8-2.3-1.1c-0.8-0.3-1.6-0.4-2.4-0.4c-1,0-1.7,0.2-2.3,0.6   c-0.6,0.4-0.8,1-0.8,1.6v0.1c0,0.4,0.1,0.7,0.3,0.9c0.2,0.3,0.5,0.5,0.9,0.7c0.4,0.2,0.8,0.4,1.3,0.5c0.5,0.2,1,0.3,1.6,0.5   c0.6,0.2,1.2,0.4,1.8,0.6c0.6,0.2,1.2,0.5,1.7,0.8c0.5,0.3,0.9,0.7,1.2,1.2c0.3,0.5,0.5,1.1,0.5,1.8v0.1c0,0.7-0.2,1.4-0.5,2   c-0.3,0.6-0.7,1-1.2,1.4c-0.5,0.4-1.1,0.7-1.8,0.9C214.7,47.3,214,47.4,213.2,47.4z"/>
	<path fill="#0081CB" d="M229.7,47.4c-1.2,0-2.3-0.2-3.3-0.6c-1-0.4-1.9-1-2.6-1.7c-0.7-0.7-1.3-1.6-1.7-2.5c-0.4-1-0.6-2-0.6-3.1   v-0.1c0-1.1,0.2-2.1,0.6-3.1c0.4-1,1-1.8,1.7-2.5c0.7-0.7,1.6-1.3,2.7-1.7c1-0.4,2.1-0.6,3.4-0.6c1.2,0,2.3,0.2,3.3,0.6   c1,0.4,1.9,1,2.7,1.7c0.7,0.7,1.3,1.6,1.7,2.5c0.4,1,0.6,2,0.6,3.1v0.1c0,1.1-0.2,2.1-0.6,3.1c-0.4,1-1,1.8-1.8,2.5   c-0.7,0.7-1.6,1.3-2.7,1.7C232.1,47.2,230.9,47.4,229.7,47.4z M229.8,45.4c0.9,0,1.7-0.2,2.4-0.5c0.7-0.3,1.3-0.7,1.9-1.3   c0.5-0.5,0.9-1.2,1.2-1.9c0.3-0.7,0.4-1.5,0.4-2.3v-0.1c0-0.8-0.1-1.6-0.4-2.3c-0.3-0.7-0.7-1.4-1.3-1.9c-0.5-0.5-1.2-1-1.9-1.3   c-0.7-0.3-1.5-0.5-2.4-0.5c-0.9,0-1.7,0.2-2.4,0.5c-0.7,0.3-1.3,0.7-1.8,1.3c-0.5,0.5-0.9,1.2-1.2,1.9c-0.3,0.7-0.4,1.5-0.4,2.3   v0.1c0,0.8,0.1,1.6,0.4,2.3c0.3,0.7,0.7,1.3,1.2,1.9c0.5,0.5,1.2,1,1.9,1.3C228.2,45.2,229,45.4,229.8,45.4z"/>
	<path fill="#0081CB" d="M242.2,33.4H240v-2h2.2v-0.8c0-1.8,0.5-3.1,1.4-4c0.8-0.8,2-1.2,3.4-1.2c0.6,0,1,0,1.4,0.1   c0.4,0.1,0.8,0.2,1.2,0.3v2c-0.4-0.1-0.8-0.2-1.2-0.3c-0.4-0.1-0.7-0.1-1.1-0.1c-1.9,0-2.8,1.1-2.8,3.3v0.7h5.1v2h-5.1v14h-2.4   V33.4z"/>
	<path fill="#0081CB" d="M258.2,47.4c-0.6,0-1.2-0.1-1.8-0.3c-0.6-0.2-1-0.4-1.4-0.8c-0.4-0.4-0.7-0.9-0.9-1.5   c-0.2-0.6-0.3-1.3-0.3-2.2v-9.3h-2.2v-2h2.2v-4h2.4v4h5.1v2h-5.1v8.9c0,1,0.2,1.7,0.7,2.2c0.5,0.4,1.1,0.6,2,0.6   c0.4,0,0.8,0,1.2-0.1c0.4-0.1,0.7-0.2,1.2-0.4v2.1c-0.4,0.2-0.9,0.4-1.3,0.5C259.3,47.3,258.8,47.4,258.2,47.4z"/>
	<path fill="#0081CB" d="M263.4,27.5c0-0.9,0.8-1.7,1.7-1.7c0.9,0,1.7,0.8,1.7,1.7c0,0.9-0.8,1.7-1.7,1.7   C264.1,29.2,263.4,28.4,263.4,27.5 M263,27.5c0,1.1,0.9,2.1,2.1,2.1c1.2,0,2.1-0.9,2.1-2.1c0-1.2-0.9-2.1-2.1-2.1   C263.9,25.4,263,26.3,263,27.5"/>
	<path fill="#0081CB" d="M265.1,27.5c0.1,0,0.1,0,0.2,0c0.1,0,0.1,0,0.2-0.1c0,0,0.1-0.1,0.1-0.1c0,0,0-0.1,0-0.2   c0-0.1,0-0.2-0.1-0.3c-0.1-0.1-0.2-0.1-0.4-0.1h-0.3v0.8L265.1,27.5z M264.8,28.6h-0.3v-2.2h0.6c0.3,0,0.5,0.1,0.6,0.2   c0.1,0.1,0.2,0.3,0.2,0.5c0,0.2,0,0.3-0.1,0.4c-0.1,0.1-0.2,0.2-0.4,0.2l0.6,0.9h-0.3l-0.5-0.9l-0.4,0V28.6z"/>
	<polygon fill="#0081CB" points="21.6,28.2 21.6,47.3 18.7,47.3 18.7,28.2 11,28.2 11,25.4 29.3,25.4 29.3,28.2  "/>
	<rect x="31.8" y="25.4" fill="#0081CB" width="2.9" height="21.9"/>
	<path fill="#0081CB" d="M47.2,38h-4.3v6.9h4.8c3.3,0,4.9-1.2,4.9-3.4C52.6,38.9,50.3,38,47.2,38 M47.5,28.4h-4.5v6.9H47   c3.2,0,4.9-1.4,4.9-3.6C51.9,29.6,50.3,28.4,47.5,28.4 M55.6,41.4c0,3.7-2.5,6.2-8.1,6.2H40v-22h7.3c5.3,0,7.6,2.4,7.6,5.8   c0,2.3-1.3,3.9-3.8,4.8C54,37,55.6,38.9,55.6,41.4"/>
	<path fill="#0081CB" d="M75.1,29.7c-1.9-1.2-3.7-1.8-6-1.8c-4.8,0-8,3.2-8,8.4s3.2,8.5,8.1,8.5c2.4,0,4.7-0.9,6.2-2l0.5,2.9   c-1.8,1.1-4.3,1.7-6.8,1.7c-6.4,0-11-4.3-11-10.9c0-6.7,4.6-11.1,11-11.1c2.5,0,5.2,0.7,7,1.7L75.1,29.7z"/>
	<g>
		<path fill="#0081CB" d="M94,26.9c-0.3-0.2-0.7-0.4-1-0.5c-2.9,5.3-8.1,11.5-15,15.1c0.4,0.9,0.9,1.6,1.5,2.3    C85.5,39.9,90.9,33.4,94,26.9"/>
		<path fill="#0081CB" d="M92.7,26.3c-1.4-0.6-3-0.9-4.8-0.9c-6.4,0-11,4.8-11,11c0,1.1,0.1,2.1,0.3,3    C83.9,36.9,89.8,31.2,92.7,26.3"/>
		<path fill="#0081CB" d="M94.3,27.1c-3.4,8-7.5,13.6-12.8,18.5c1.8,1.2,4,1.8,6.5,1.8c6.4,0,11-4.8,11-11.1    C99,32.2,97.2,28.9,94.3,27.1"/>
	</g>
	<g>
		<path fill="#0081CB" d="M100.2,27.1c0-0.9,0.8-1.7,1.7-1.7c0.9,0,1.7,0.8,1.7,1.7c0,0.9-0.8,1.7-1.7,1.7    C100.9,28.8,100.2,28,100.2,27.1 M99.8,27.1c0,1.1,0.9,2.1,2.1,2.1c1.2,0,2.1-0.9,2.1-2.1c0-1.2-0.9-2.1-2.1-2.1    C100.7,25,99.8,25.9,99.8,27.1"/>
		<path fill="#0081CB" d="M101.9,27.1c0.1,0,0.1,0,0.2,0c0.1,0,0.1,0,0.2-0.1c0,0,0.1-0.1,0.1-0.1c0,0,0-0.1,0-0.2    c0-0.1,0-0.2-0.1-0.3c-0.1-0.1-0.2-0.1-0.4-0.1h-0.3v0.8L101.9,27.1z M101.5,28.2h-0.3V26h0.6c0.3,0,0.5,0.1,0.6,0.2    c0.1,0.1,0.2,0.3,0.2,0.5c0,0.2,0,0.3-0.1,0.4c-0.1,0.1-0.2,0.2-0.4,0.2l0.6,0.9h-0.3l-0.5-0.9l-0.4,0V28.2z"/>
	</g>
</g>
</svg>