<svg xmlns="http://www.w3.org/2000/svg" xmlns:xlink="http://www.w3.org/1999/xlink" version="1.1" width="28" height="1680"><rect id="backgroundrect" width="100%" height="100%" x="0" y="0" fill="none" stroke="none"/>
<g class="currentLayer"><title>Layer 1</title>
<path fill="#ccc" d="M1.68 0.84h-1.4v26.88h26.88v-1.4h-25.48v-25.48z" id="svg_209" class=""/>
<path fill="#18a3bf" d="M11.186 24.906h5.6v-14.84h-5.6v14.84z" id="svg_208" class="" fill-opacity="1"/>
<path fill="#7f3303" d="M9.52 3.808h-5.6v21.14h5.6v-21.14z" id="svg_207" class="" fill-opacity="1"/>
<path fill="#d68d35" d="M24.052 24.906v-9.24h-5.6v9.24h5.6z" id="svg_206" class="" fill-opacity="1"/>

<path fill="#ccc" d="M1.6800000000000002,48.84 h-1.4 v26.88 h26.88 v-1.4 h-25.48 v-25.48 z" id="svg_9" class=""/>
<path fill="#7f3303" d="M10.318,65.542 h-6.16 v7.378 h6.16 v-7.378 zM18.438,67.55799999999999 h-6.16 v5.362 h6.16 v-5.362 zM26.558,72.92 v-3.6820000000000004 h-6.16 v3.6820000000000004 h6.16 z" id="svg_7" class="" fill-opacity="1"/>
<path fill="#18a3bf" d="M10.318,59.564 h-6.16 v5.978 h6.16 v-5.978 zM18.438,67.55799999999999 v-5.068 h-6.16 v5.068 h6.16 zM26.558,69.238 v-3.85 h-6.16 v3.85 h6.16 z" id="svg_5" class="" fill-opacity="1"/>
<path fill="#d68d35" d="M4.158,59.564 h6.16 v-5.936 h-6.16 v5.936 zM18.438,57.996 h-6.16 v4.494 h6.16 v-4.494 z" id="svg_3" class="" fill-opacity="1"/>
<path fill="#d68d35" d="M26.558,65.388 v-3.444 h-6.16 v3.444 h6.16 z" id="svg_2" class="" fill-opacity="1"/>

<path fill="#18a3bf" d="M26.586,111.246 v-7.098 h-6.16 v7.098 h6.16 zM10.094,104.848 h-6.16 v7.098 h6.16 v-7.098 zM18.34,108.068 h-6.16 v7.098 h6.16 v-7.098 z" id="svg_19" class="" fill-opacity="1"/>
<path fill="#7f3303" d="M26.586,120.92 v-9.674 h-6.16 v9.674 h6.16 zM10.094,111.946 h-6.16 v8.974 h6.16 v-8.974 zM18.34,115.166 h-6.16 v5.7540000000000004 h6.16 v-5.7540000000000004 z" id="svg_17" class="" fill-opacity="1"/>
<path fill="#d68d35" d="M26.586,104.148 v-4.368 h-6.16 v4.368 h6.16 zM3.934,99.78 v5.068 h6.16 v-5.068 h-6.16 zM12.18,99.78 v8.288 h6.16 v-8.288 h-6.16 z" id="svg_15" class="" fill-opacity="1"/>
<path fill="#ccc" d="M1.6800000000000002,96.84 h-1.4 v26.88 h26.88 v-1.4 h-25.48 v-25.48 z" id="svg_13" class=""/>

<path fill="#18a3bf" d="M3.36,155.186 v5.6 h15.47 v-5.6 h-15.47 z" id="svg_29" class="" fill-opacity="1"/>
<path fill="#d68d35" d="M12.6,153.8 v-5.6 h-9.24 v5.6 h9.24 z" id="svg_27" class="" fill-opacity="1"/>
<path fill="#7f3303" d="M23.94,167.8 v-5.6 h-20.58 v5.6 h20.58 z" id="svg_25" class="" fill-opacity="1"/>
<path fill="#ccc" d="M1.6800000000000002,144.84 h-1.4 v26.88 h26.88 v-1.4 h-25.48 v-25.48 z" id="svg_23" class=""/>

<path fill="#ccc" d="M1.6800000000000002,192.84 h-1.4 v26.88 h26.88 v-1.4 h-25.48 v-25.48 z" id="svg_41" class=""/>
<path fill="#7f3303" d="M7,200.666 v-6.16 h-3.71 v6.16 h3.71 zM8.526,202.528 h-5.236 v6.16 h5.236 v-6.16 zM9.996,216.906 v-6.16 h-6.706 v6.16 h6.706 z" id="svg_39" class="" fill-opacity="1"/>
<path fill="#18a3bf" d="M7,200.666 h4.116 v-6.16 h-4.116 v6.16 zM8.526,208.688 h5.46 v-6.16 h-5.46 v6.16 zM9.996,210.746 v6.16 h7.322 v-6.16 h-7.322 z" id="svg_37" class="" fill-opacity="1"/>
<path fill="#d68d35" d="M14.574,200.666 v-6.16 h-3.458 v6.16 h3.458 z" id="svg_35" class="" fill-opacity="1"/>
<path fill="#d68d35" d="M19.012,202.528 h-5.026 v6.16 h5.026 v-6.16 zM22.82,216.906 v-6.16 h-5.502 v6.16 h5.502 z" id="svg_33" class="" fill-opacity="1"/>

<path fill="#ccc" d="M1.6800000000000002,240.84 h-1.4 v26.88 h26.88 v-1.4 h-25.48 v-25.48 z" id="svg_51" class=""/>
<path fill="#18a3bf" d="M9.59,250.654 v6.16 h7.098 v-6.16 h-7.098 zM14.462,258.774 v6.16 h7.126 v-6.16 h-7.126 zM20.608,248.694 v-6.16 h-10.038 v6.16 h10.038 z" id="svg_49" class="" fill-opacity="1"/>
<path fill="#7f3303" d="M9.59,250.654 h-5.334 v6.16 h5.334 v-6.16 zM4.256,258.774 v6.16 h10.206 v-6.16 h-10.206 zM4.256,248.694 h6.314 v-6.16 h-6.314 v6.16 z" id="svg_47" class="" fill-opacity="1"/>
<path fill="#d68d35" d="M25.536,256.814 v-6.16 h-8.848 v6.16 h8.848 zM25.536,264.934 v-6.16 h-3.948 v6.16 h3.948 zM25.536,248.694 v-6.16 h-4.928 v6.16 h4.928 z" id="svg_45" class="" fill-opacity="1"/>

<path fill="#ccc" d="M23.478,311.478 q3.934,-3.922 3.934,-9.478 t-3.934,-9.492 q-3.922,-3.92 -9.478,-3.92 q-0.20800000000000002,-0.0020000000000000005 -0.406,0.014000000000000002 q-0.011000000000000003,0 -0.028000000000000004,0 q-0.08800000000000002,0.0010000000000000002 -0.18200000000000002,0.014000000000000002 q-5.16,0.19100000000000003 -8.876,3.8920000000000003 q-0.05400000000000001,0.06800000000000002 -0.126,0.14 l-0.028000000000000004,0.014000000000000002 q0,0.014000000000000002 -0.014000000000000002,0.014000000000000002 l-0.014000000000000002,0.014000000000000002 q-1.741,1.835 -2.6740000000000004,4.004 q-1.057,2.427 -1.064,5.2780000000000005 q0,0.018000000000000002 0,0.028000000000000004 v0.014000000000000002 q0.003000000000000001,1.23 0.19600000000000004,2.38 q0.6760000000000002,3.938 3.556,6.916 q0.06300000000000001,0.07500000000000001 0.126,0.126 l0.04200000000000001,0.04200000000000001 q3.809,3.793 9.128,3.934 h0.014000000000000002 q0.017000000000000005,0 0.028000000000000004,0 h0.014000000000000002 q0.15100000000000002,0 0.30800000000000005,0 q5.556,0 9.478,-3.934 zM24.136,302.84 h1.568 q-0.254,4.009 -2.982,6.986 l-1.106,-1.106 q2.271,-2.5060000000000002 2.52,-5.88 zM21.56,293.026 l-1.106,1.106 q-2.6340000000000003,-2.203 -6.16,-2.2960000000000003 v-1.568 q4.172,0.09400000000000003 7.266,2.758 zM12.614,290.352 v1.568 q-3.041,0.36800000000000005 -5.376,2.436 l-1.092,-1.092 q2.794,-2.525 6.468,-2.912 zM14.518,300.054 v-6.524 q2.692,0.14200000000000002 4.746,1.792 l-4.746,4.732 zM4.69,297.814 v0.014000000000000002 q-0.6900000000000002,1.566 -0.8260000000000001,3.332 h-1.568 q0.127,-2.028 0.8960000000000001,-3.794 q0.6650000000000001,-1.534 1.792,-2.8840000000000003 l1.092,1.092 q-0.8640000000000001,1.073 -1.3860000000000001,2.24 zM6.216,310.764 l1.092,-1.092 q2.3930000000000002,2.122 5.53,2.436 v1.568 q-3.773,-0.3420000000000001 -6.622,-2.912 zM25.326,298.864 l0.18200000000000002,-0.028000000000000004 l0.43400000000000005,3.458 l-7.91,0.546 h4.41 q-0.232,2.677 -2.016,4.69 l-4.564,-4.55 l-0.6720000000000002,0.05600000000000001 l-0.29400000000000004,-2.226 l1.54,-0.29400000000000004 l4.046,-4.018 q1.155,1.346 1.6380000000000001,2.968 l1.6660000000000001,-0.30800000000000005 q-0.5860000000000001,-2.122 -2.114,-3.864 l1.092,-1.092 q1.8860000000000001,2.089 2.5620000000000003,4.662 zM14.042,300.74 l-1.372,0.8540000000000001 l0.08400000000000002,1.26 l1.162,0.6440000000000001 l-0.05600000000000001,-0.14 l1.022,-0.6580000000000001 l7,8.26 l-3.458,2.226 l-0.11200000000000002,-0.23800000000000002 q-1.7680000000000002,0.6970000000000002 -3.794,0.77 v-1.568 q1.6700000000000002,-0.07300000000000001 3.136,-0.6300000000000001 l-0.7140000000000001,-1.526 q-1.1360000000000001,0.41000000000000003 -2.422,0.47600000000000003 v-5.698 l-0.518,-1.106 l-1.162,2.926 v3.822 q-0.7210000000000001,-0.08300000000000002 -1.4,-0.29400000000000004 l-0.07,0.19600000000000004 l-3.206,-1.806 l3.7800000000000002,-5.04 l-0.9380000000000001,0.126 l-3.668,3.668 q-1.09,-1.358 -1.554,-2.996 l-1.6940000000000002,0.22400000000000003 q0.5690000000000001,2.19 2.058,3.976 l-1.106,1.106 q-1.872,-2.166 -2.492,-4.886 l-0.05600000000000001,0.014000000000000002 l-0.04200000000000001,-0.462 q-0.003000000000000001,-0.06000000000000001 -0.014000000000000002,-0.126 q-0.10300000000000001,-0.6250000000000001 -0.14,-1.274 h0.05600000000000001 l-0.09800000000000003,-1.512 l8.988,-0.16800000000000004 h-5.698 q0.133,-1.4060000000000001 0.6860000000000002,-2.66 v0 q0.401,-0.8970000000000001 1.05,-1.722 l4.368,4.368 h0.3360000000000001 l-4.228,-5.334 l2.982,-1.8900000000000001 l0.08400000000000002,0.16800000000000004 q0.9550000000000001,-0.37300000000000005 2.016,-0.504 v4.662 l1.204,2.492 z" id="svg_61" class=""/>
<path fill="#18a3bf" d="M13.86,303.358 l0.05600000000000001,0.14 l-1.162,-0.6440000000000001 l-0.23800000000000002,-0.14 l-0.5740000000000001,0.7560000000000001 l-3.7800000000000002,5.04 l3.206,1.806 l0.07,-0.19600000000000004 l2.5620000000000003,-6.454 l0.518,1.106 l2.422,5.222 l0.7140000000000001,1.526 l0.6580000000000001,1.428 l0.11200000000000002,0.23800000000000002 l3.458,-2.226 l-7,-8.26 l-1.022,0.6580000000000001 z" id="svg_59" class="" fill-opacity="1"/>
<path fill="#7f3303" d="M12.67,301.594 l1.372,-0.8540000000000001 l-1.204,-2.492 l-2.016,-4.158 l-0.08400000000000002,-0.16800000000000004 l-2.982,1.8900000000000001 l4.228,5.334 h-0.3360000000000001 l-0.406,0.014000000000000002 l-8.988,0.16800000000000004 l0.09800000000000003,1.512 l0.09800000000000003,1.4 l0.04200000000000001,0.462 l0.05600000000000001,-0.014000000000000002 l1.54,-0.19600000000000004 l1.6940000000000002,-0.22400000000000003 l6.16,-0.798 l0.5740000000000001,-0.7560000000000001 l0.23800000000000002,0.14 l-0.08400000000000002,-1.26 z" id="svg_57" class="" fill-opacity="1"/>
<path fill="#d68d35" d="M25.326,298.864 l-1.54,0.29400000000000004 l-8.89,1.6520000000000001 l0.29400000000000004,2.226 l0.6720000000000002,-0.05600000000000001 l2.17,-0.14 l7.91,-0.546 l-0.43400000000000005,-3.458 l-0.18200000000000002,0.028000000000000004 z" id="svg_55" class="" fill-opacity="1"/>

<path fill="#ccc" d="M1.6800000000000002,336.84 h-1.4 v26.88 h26.88 v-1.4 h-25.48 v-25.48 z" id="svg_70" class=""/>
<path fill="#d68d35" d="M13.342,346.766 l3.01,-0.14 l-4.802,-3.724 l-6.426,9.24 l-2.044,-0.014000000000000002 v1.96 l3.066,0.014000000000000002 l5.838,-8.386 l1.358,1.05 zM26.152,344.372 l-1.6380000000000001,-1.064 l-4.172,6.412 l-1.582,-1.232 l-3.024,0.14 l5.082,3.948 l5.334,-8.204 z" id="svg_69" class="" fill-opacity="1"/>
<path fill="#18a3bf" d="M25.536,338.576 l-1.6380000000000001,-1.078 l-5.964,9.058 l-1.582,0.07 l-3.64,0.16800000000000004 l-5.95,8.736 h-3.6820000000000004 v1.96 h4.718 l5.978,-8.778 l1.96,-0.08400000000000002 l3.29,-0.15400000000000003 l6.51,-9.898 z" id="svg_67" class="" fill-opacity="1"/>
<path fill="#7f3303" d="M25.732,351.526 l-1.6380000000000001,-1.078 l-2.996,4.578 l-6.314,-5.04 l-6.3,8.862 l-5.404,-0.04200000000000001 l-0.014000000000000002,1.96 l6.426,0.05600000000000001 l5.684,-8.022 l6.384,5.096 l4.172,-6.37 z" id="svg_65" class="" fill-opacity="1"/>

<path fill="#ccc" d="M1.6800000000000002,384.84 h-1.4 v26.88 h26.88 v-1.4 h-25.48 v-25.48 z" id="svg_75" class=""/>
<path fill="#d68d35" d="M26.866,397.104 q-0.07200000000000001,-1.952 -1.54,-5.684 q-1.978,-5.037 -4.102,-4.48 q-1.372,0.07800000000000001 -3.066,3.612 l-0.014000000000000002,0.014000000000000002 v0.014000000000000002 q-1.5590000000000002,3.633 -2.52,5.838 q0.38100000000000006,0.8230000000000001 0.8680000000000001,2.198 q0.22300000000000003,-0.48900000000000005 0.44800000000000006,-1.008 q0.99,-2.275 2.73,-6.328 q1.161,-2.4290000000000003 1.82,-2.688 h0.014000000000000002 q0.918,0.028000000000000004 2.254,3.444 q1.332,3.38 1.428,5.138 l1.6800000000000002,-0.07 zM15.456,400.786 q-0.42000000000000004,-1.3 -0.784,-2.254 q-1.319,2.875 -2.422,4.41 v-0.014000000000000002 q-0.262,0.37700000000000006 -0.532,0.6860000000000002 q0.7070000000000001,0.35300000000000004 1.4420000000000002,0.8960000000000001 q0.23,-0.272 0.44800000000000006,-0.5880000000000001 v0 q0.8660000000000001,-1.188 1.848,-3.136 zM10.248,404.846 q-0.6110000000000001,0.31900000000000006 -1.218,0.29400000000000004 v0 q-0.17500000000000002,0.36200000000000004 -0.36400000000000005,0.6580000000000001 h0.014000000000000002 q-0.277,0.48100000000000004 -0.5880000000000001,0.8820000000000001 q0.403,0.12100000000000001 0.798,0.14 q1.5590000000000002,0.202 3.094,-1.092 q-0.911,-0.6250000000000001 -1.7360000000000002,-0.8820000000000001 zM6.776,403.796 q-0.47400000000000003,-0.47300000000000003 -0.9660000000000001,-1.134 l-1.61,-2.59 l-1.428,0.8820000000000001 l1.6520000000000001,2.6740000000000004 l0.028000000000000004,0.028000000000000004 q0.507,0.6780000000000002 1.008,1.204 q0.6860000000000002,-0.6340000000000001 1.316,-1.064 z" id="svg_74" class="" fill-opacity="1"/>
<path fill="#7f3303" d="M2.8280000000000003,407.912 q0.42900000000000005,-0.6170000000000001 0.9380000000000001,-1.246 l-0.28,-0.15400000000000003 l-0.8260000000000001,1.456 l0.6580000000000001,0.36400000000000005 l0.05600000000000001,0.028000000000000004 l0.04200000000000001,0.014000000000000002 q0.12200000000000001,0.05800000000000001 0.23800000000000002,0.09800000000000003 l-0.8260000000000001,-0.56 zM9.24,404.678 q-0.10200000000000001,-0.005000000000000001 -0.21000000000000002,0 q-1.276,0.17200000000000001 -3.108,2.086 q-0.8970000000000001,0.9560000000000001 -1.568,1.8900000000000001 q0.48900000000000005,0.07600000000000001 0.8820000000000001,-0.04200000000000001 v0 q1.6670000000000003,-0.37900000000000006 2.856,-1.932 q0.31100000000000005,-0.401 0.5880000000000001,-0.8820000000000001 h-0.014000000000000002 q0.18900000000000003,-0.29600000000000004 0.36400000000000005,-0.6580000000000001 q0.11000000000000001,-0.22100000000000003 0.21000000000000002,-0.462 zM15.624,396.418 q-0.15200000000000002,-0.3320000000000001 -0.29400000000000004,-0.5740000000000001 v-0.014000000000000002 q-1.484,-2.6590000000000003 -3.332,-1.792 q-1.249,0.39000000000000007 -2.128,2.8280000000000003 q-0.09600000000000003,0.28600000000000003 -1.1480000000000001,4.158 v0 q-0.32800000000000007,1.202 -0.6720000000000002,2.128 q0.43600000000000005,-0.136 0.8400000000000001,-0.15400000000000003 v0 q0.48800000000000004,-0.04900000000000001 0.994,0.014000000000000002 q0.23500000000000001,-0.7100000000000001 0.462,-1.54 v-0.014000000000000002 q1.02,-3.758 1.106,-4.032 q0.536,-1.485 1.1480000000000001,-1.82 q0.6200000000000001,-0.101 1.26,1.05 v0 q0.35000000000000003,0.6270000000000001 0.812,1.8760000000000001 q0.36400000000000005,0.9540000000000001 0.784,2.254 q0.05900000000000001,0.15300000000000002 0.11200000000000002,0.30800000000000005 q1.176,3.6550000000000002 1.8760000000000001,5.026 v0 q0.20600000000000002,0.3950000000000001 0.406,0.7280000000000001 q0.21400000000000002,-0.138 0.43400000000000005,-0.3360000000000001 v-0.014000000000000002 q0.32100000000000006,-0.267 0.8260000000000001,-0.812 q-0.07600000000000001,-0.15300000000000002 -0.16800000000000004,-0.32200000000000006 v-0.014000000000000002 q-0.6580000000000001,-1.303 -1.778,-4.774 q-0.35600000000000004,-1.089 -0.6720000000000002,-1.96 q-0.48700000000000004,-1.375 -0.8680000000000001,-2.198 zM26.908,405.084 l-1.344,-1.008 q-2.475,3.286 -4.788,3.22 h-0.014000000000000002 q-0.29200000000000004,-0.05400000000000001 -0.5880000000000001,-0.28 q-0.47300000000000003,0.502 -0.784,0.7560000000000001 v0 q-0.253,0.22700000000000004 -0.504,0.406 q0.8420000000000001,0.797 1.778,0.798 v0 q3.093,0.29400000000000004 6.244,-3.8920000000000003 z" id="svg_73" class="" fill-opacity="1"/>
<path fill="#18a3bf" d="M24.5,402.396 q1.225,-1.015 2.212,-1.036 l0.04200000000000001,-1.6800000000000002 q-1.518,-0.07700000000000001 -3.332,1.428 q-0.983,0.8220000000000001 -2.744,2.8280000000000003 q-0.927,1.083 -1.568,1.75 q-0.505,0.545 -0.8260000000000001,0.812 v0.014000000000000002 q-0.22000000000000003,0.19800000000000004 -0.43400000000000005,0.3360000000000001 q-0.6270000000000001,0.45 -1.092,0.406 h-0.014000000000000002 q-0.43700000000000006,-0.11700000000000002 -1.134,-0.6720000000000002 q-1.119,-0.989 -1.75,-1.512 q-0.3480000000000001,-0.30000000000000004 -0.7000000000000001,-0.56 q-0.7350000000000001,-0.543 -1.4420000000000002,-0.8960000000000001 q-0.9510000000000001,-0.47800000000000004 -1.834,-0.6020000000000001 q-0.506,-0.06300000000000001 -0.994,-0.014000000000000002 v0 q-0.404,0.018000000000000002 -0.8400000000000001,0.15400000000000003 q-0.6050000000000001,0.20900000000000002 -1.274,0.6440000000000001 q-0.6300000000000001,0.43000000000000005 -1.316,1.064 q-0.36700000000000005,0.3470000000000001 -0.7560000000000001,0.7420000000000001 q-0.49500000000000005,0.538 -0.9380000000000001,1.064 q-0.509,0.6290000000000001 -0.9380000000000001,1.246 l0.8260000000000001,0.56 l0.56,0.37800000000000006 q0.07500000000000001,-0.09200000000000003 0.14,-0.19600000000000004 q0.6710000000000002,-0.934 1.568,-1.8900000000000001 q1.832,-1.9140000000000001 3.108,-2.086 q0.10800000000000001,-0.005000000000000001 0.21000000000000002,0 q0.49000000000000005,0.012000000000000002 1.008,0.16800000000000004 q0.8250000000000001,0.257 1.7360000000000002,0.8820000000000001 q0.3940000000000001,0.28400000000000003 0.798,0.6300000000000001 q0.6150000000000001,0.513 1.7080000000000002,1.484 l0.028000000000000004,0.028000000000000004 q1.129,0.9 1.8760000000000001,1.022 q1.09,0.32400000000000007 2.492,-0.7140000000000001 q0.251,-0.17900000000000002 0.504,-0.406 v0 q0.31100000000000005,-0.254 0.784,-0.7560000000000001 q0.7060000000000001,-0.7230000000000001 1.778,-1.974 q1.641,-1.872 2.548,-2.646 z" id="svg_72" class="" fill-opacity="1"/>

<path fill="#ccc" d="M1.6800000000000002,432.84 h-1.4 v26.88 h26.88 v-1.4 h-25.48 v-25.48 z" id="svg_80" class=""/>
<path fill="#7f3303" d="M26.852,456.906 v-9.604 l-6.104,5.418 l-12.292,0.44800000000000006 l-5.404,2.6180000000000003 v1.12 h23.8 z" id="svg_79" class="" fill-opacity="1"/>
<path fill="#d68d35" d="M24.318,443.01800000000003 q1.4140000000000001,-1.302 2.52,-2.436 l0.014000000000000002,-6.706 l-9.73,9.282 l-7.196,1.82 l-6.86,6.398 l3.318,0.11200000000000002 l4.872,-2.716 l7.098,-1.008 q3.192,-2.17 5.964,-4.746 z" id="svg_78" class="" fill-opacity="1"/>
<path fill="#18a3bf" d="M26.852,440.554 l-0.014000000000000002,0.028000000000000004 q-1.106,1.134 -2.52,2.436 q-2.7720000000000002,2.576 -5.964,4.746 l-7.098,1.008 l-4.872,2.716 l-3.318,-0.11200000000000002 l-0.014000000000000002,4.41 l5.404,-2.6180000000000003 l12.292,-0.44800000000000006 l6.104,-5.418 v-6.748 z" id="svg_77" class="" fill-opacity="1"/>

<path fill="#ccc" d="M1.6800000000000002,480.84 h-1.4 v26.88 h26.88 v-1.4 h-25.48 v-25.48 z" id="svg_85" class=""/>
<path fill="#18a3bf" d="M27.16,495.932 v-3.6260000000000003 l-7.8260000000000005,3.71 l-7.084,-2.492 l-5.922,1.988 l-3.248,-1.9180000000000001 v3.374 l5.936,3.85 l3.696,-1.792 l7.042,2.52 l7.406,-5.614 z" id="svg_84" class="" fill-opacity="1"/>
<path fill="#7f3303" d="M27.16,504.934 v-9.002 l-7.406,5.614 l-7.042,-2.52 l-3.696,1.792 l-5.936,-3.85 v7.966 h24.08 z" id="svg_83" class="" fill-opacity="1"/>
<path fill="#d68d35" d="M27.16,492.306 v-3.5140000000000002 l-7,3.136 l-8.162,-3.024 l-5.894,2.534 l-3.024,-1.7080000000000002 v3.864 l3.248,1.9180000000000001 l5.922,-1.988 l7.084,2.492 l7.8260000000000005,-3.71 z" id="svg_82" class="" fill-opacity="1"/>

<path fill="#ccc" d="M1.6800000000000002,528.84 h-1.4 v26.88 h26.88 v-1.4 h-25.48 v-25.48 z" id="svg_90" class=""/>
<path fill="#7f3303" d="M27.16,552.92 v-10.402 l-4.144,4.648 l-4.354,-3.444 l-8.05,4.942 l-5.362,-2.548 l-2.17,1.512 v5.292 h24.08 z" id="svg_89" class="" fill-opacity="1"/>
<path fill="#18a3bf" d="M27.16,530.408 l-4.466,8.484 l-3.654,-4.256 l-2.464,2.94 l-8.512,-0.028000000000000004 l-2.786,3.64 l-2.198,-5.6 v12.04 l2.17,-1.512 l5.362,2.548 l8.05,-4.942 l4.354,3.444 l4.144,-4.648 v-12.11 z" id="svg_88" class="" fill-opacity="1"/>
<path fill="#d68d35" d="M22.694,538.892 l4.466,-8.484 v-1.568 h-24.08 v6.748 l2.198,5.6 l2.786,-3.64 l8.512,0.028000000000000004 l2.464,-2.94 l3.654,4.256 z" id="svg_87" class="" fill-opacity="1"/>

<path fill="#ccc" d="M1.6800000000000002,576.84 h-1.4 v26.88 h26.88 v-1.4 h-25.48 v-25.48 z" id="svg_95" class=""/>
<path fill="#7f3303" d="M27.16,600.262 q-0.98,-1.1480000000000001 -2.128,-2.282 q-2.968,-2.94 -4.368,-2.94 q-0.7280000000000001,0 -1.806,0.798 q-0.37800000000000006,0.28 -2.058,1.7640000000000002 q-2.912,2.548 -4.816,2.534 q-0.77,0 -2.702,-1.064 t-3.122,-1.064 q-1.274,0 -3.066,1.176 l-0.014000000000000002,0.014000000000000002 v1.722 h24.08 v-0.6580000000000001 z" id="svg_94" class="" fill-opacity="1"/>
<path fill="#18a3bf" d="M25.032,597.98 q1.1480000000000001,1.134 2.128,2.282 v-5.348 q-1.792,-3.3040000000000003 -2.702,-4.55 q-1.54,-2.086 -3.5140000000000002,-1.932 q-0.6440000000000001,0.05600000000000001 -1.7640000000000002,1.4420000000000002 q-0.014000000000000002,0.028000000000000004 -2.17,3.01 q-3.136,4.3260000000000005 -5.25,4.3260000000000005 q-2.1,0 -3.3040000000000003,-0.6580000000000001 q-1.316,-0.7280000000000001 -2.184,-0.784 t-1.4,0.126 q-0.8960000000000001,0.28 -1.792,1.288 v2.016 l0.014000000000000002,-0.014000000000000002 q1.792,-1.176 3.066,-1.176 q1.19,0 3.122,1.064 t2.702,1.064 q1.904,0.014000000000000002 4.816,-2.534 q1.6800000000000002,-1.484 2.058,-1.7640000000000002 q1.078,-0.798 1.806,-0.798 q1.4,0 4.368,2.94 z" id="svg_93" class="" fill-opacity="1"/>
<path fill="#d68d35" d="M27.16,588.096 q-1.05,-2.324 -2.534,-3.444 q-1.526,-1.1480000000000001 -3.6260000000000003,-1.1480000000000001 q-1.512,0 -3.5,1.596 q-1.358,1.092 -3.556,3.5140000000000002 q-2.59,2.842 -3.3040000000000003,3.5140000000000002 q-1.7080000000000002,1.596 -2.716,1.596 q-1.61,0 -3.388,-1.806 l-1.456,-1.806 v7.07 q0.8960000000000001,-1.008 1.792,-1.288 q0.532,-0.18200000000000002 1.4,-0.126 t2.184,0.784 q1.204,0.6580000000000001 3.3040000000000003,0.6580000000000001 q2.114,0 5.25,-4.3260000000000005 q2.156,-2.982 2.17,-3.01 q1.12,-1.3860000000000001 1.7640000000000002,-1.4420000000000002 q1.974,-0.15400000000000003 3.5140000000000002,1.932 q0.91,1.246 2.702,4.55 v-6.818 z" id="svg_92" class="" fill-opacity="1"/>

<path fill="#ccc" d="M23.66,647.66 q4.005,-3.993 4.004,-9.66 q0.0010000000000000002,-5.667 -4.004,-9.674 q-3.993,-3.991 -9.66,-3.99 q-0.19600000000000004,-0.0010000000000000002 -0.39200000000000007,0.014000000000000002 q-5.406,0.132 -9.282,3.976 l-0.014000000000000002,0.014000000000000002 l-0.028000000000000004,0.04200000000000001 q-0.038000000000000006,0.05200000000000001 -0.09800000000000003,0.09800000000000003 l-0.014000000000000002,0.028000000000000004 q-0.029000000000000005,0.030000000000000006 -0.05600000000000001,0.05600000000000001 q-1.7590000000000001,1.839 -2.702,4.032 q-1.073,2.473 -1.078,5.376 v0.05600000000000001 q0.004000000000000001,1.25 0.21000000000000002,2.408 h-0.014000000000000002 q0.6950000000000002,4.013 3.64,7.042 q0.030000000000000006,0.04300000000000001 0.05600000000000001,0.07 q0.019000000000000003,0.017000000000000005 0.028000000000000004,0.028000000000000004 q0.016000000000000004,0.014000000000000002 0.028000000000000004,0.028000000000000004 l0.028000000000000004,0.04200000000000001 l0.014000000000000002,0.014000000000000002 q3.8810000000000002,3.863 9.296,4.004 v0 q0.019000000000000003,0 0.028000000000000004,0 h0.028000000000000004 q0.16500000000000004,0 0.32200000000000006,0 q5.667,0.0010000000000000002 9.66,-4.004 zM23.058,629.726 q2.9690000000000003,3.213 3.192,7.574 h-2.59 q-0.203,-3.298 -2.422,-5.768 l1.82,-1.806 zM26.25,638.7 q-0.22500000000000003,4.3950000000000005 -3.248,7.616 l-1.82,-1.82 q2.273,-2.457 2.478,-5.796 h2.59 zM22.05,628.746 l-1.82,1.806 q-2.504,-2.125 -5.866,-2.24 v-2.576 q4.422,0.11900000000000002 7.686,3.01 zM12.964,625.778 v2.59 q-3.135,0.28200000000000003 -5.502,2.422 l-1.792,-1.792 q3.112,-2.901 7.2940000000000005,-3.22 zM20.244,632.526 q1.815,2.056 2.016,4.774 h-6.804 l4.788,-4.774 zM19.222,631.546 l-4.8580000000000005,4.8580000000000005 v-6.692 q2.779,0.11200000000000002 4.8580000000000005,1.834 zM12.964,629.768 v6.524 l-4.508,-4.508 q1.9500000000000002,-1.738 4.508,-2.016 zM5.124,634.01 v0.014000000000000002 q-0.6740000000000002,1.533 -0.798,3.276 h-2.576 q0.11500000000000002,-2.22 0.9520000000000001,-4.144 q0.7290000000000001,-1.689 1.988,-3.15 l1.82,1.82 q-0.8610000000000001,1.032 -1.3860000000000001,2.184 zM6.398,634.584 q0.42700000000000005,-0.927 1.106,-1.7640000000000002 l4.48,4.48 h-6.244 q0.10300000000000001,-1.4420000000000002 0.6580000000000001,-2.716 v0 zM5.894,639.918 q-0.11800000000000002,-0.5840000000000001 -0.16800000000000004,-1.218 h6.3420000000000005 l-4.508,4.536 q-1.233,-1.497 -1.6800000000000002,-3.346 l0.014000000000000002,0.028000000000000004 zM1.75,638.7 h2.576 q0.05000000000000001,0.781 0.19600000000000004,1.498 v0.014000000000000002 q0.534,2.228 2.044,4.018 l-1.82,1.82 q-2.258,-2.559 -2.8280000000000003,-5.852 q-0.12300000000000001,-0.7270000000000001 -0.16800000000000004,-1.498 zM5.726,647.058 l1.806,-1.82 q2.3440000000000003,2.116 5.432,2.408 v2.576 q-4.143,-0.31400000000000006 -7.238,-3.164 zM22.26,638.7 q-0.20600000000000002,2.758 -2.072,4.802 l-4.816,-4.802 h6.888 zM14.364,650.25 v-2.576 q3.334,-0.10200000000000001 5.8100000000000005,-2.198 l1.82,1.82 q-3.242,2.85 -7.63,2.954 zM14.364,639.68 l4.83,4.816 q-2.077,1.685 -4.83,1.778 v-6.594 zM12.964,639.792 v6.44 q-2.511,-0.276 -4.438,-1.988 l4.438,-4.452 z" id="svg_100" class=""/>
<path fill="#18a3bf" d="M18.088,639.764 l0.15400000000000003,-0.21000000000000002 l-2.8840000000000003,1.064 l-1.54,2.044 l-1.162,0.44800000000000006 l-0.23800000000000002,-1.428 l-1.596,0.5880000000000001 l0.532,3.15 l3.5140000000000002,-1.372 l0.8260000000000001,-1.092 l2.394,-3.192 zM15.414,634.318 l0.028000000000000004,1.6940000000000002 l3.5700000000000003,-0.56 l0.23800000000000002,-0.04200000000000001 l-0.32200000000000006,0.43400000000000005 l-1.372,1.834 l1.7640000000000002,0.44800000000000006 l3.7800000000000002,-5.04 l-3.71,0.5880000000000001 l-1.778,0.29400000000000004 l-2.198,0.35000000000000003 zM13.776,633.982 l-0.6860000000000002,-0.30800000000000005 l-7.042,-3.192 l-0.14,0.15400000000000003 l3.556,5.782 l0.504,0.8260000000000001 l0.126,0.784 l0.3360000000000001,1.9460000000000002 l1.302,-2.338 l-0.07,-0.37800000000000006 l-0.09800000000000003,-0.6160000000000001 l-0.6160000000000001,-0.994 l-0.9380000000000001,-1.54 l1.75,0.798 l1.19,0.546 l0.8260000000000001,-1.47 zM12.096,639.834 l-0.32200000000000006,0.6020000000000001 l0.406,-0.15400000000000003 l-0.08400000000000002,-0.44800000000000006 z" id="svg_99" class="" fill-opacity="1"/>
<path fill="#d68d35" d="M10.416,642.41 l-1.596,0.5880000000000001 l0.98,5.726 l7.112,-3.458 l1.176,-5.502 l-2.394,3.192 l-0.252,1.1480000000000001 l-4.368,2.128 l-0.6580000000000001,-3.822 zM9.464,636.418 l-6.832,1.05 l6.02,4.536 l0.14,0.8960000000000001 l1.134,-2.03 l-3.094,-2.338 l3.262,-0.504 l-0.126,-0.784 l-0.504,-0.8260000000000001 zM19.012,635.452 l-1.778,0.28 l-0.37800000000000006,1.778 l0.7000000000000001,0.16800000000000004 l1.372,-1.834 l0.08400000000000002,-0.39200000000000007 zM12.95,635.452 l-1.19,-0.546 l-0.812,0.7420000000000001 l0.6160000000000001,0.994 l0.09800000000000003,0.6160000000000001 l0.5740000000000001,-0.518 l0.7140000000000001,-1.288 zM13.09,633.674 l0.6860000000000002,0.30800000000000005 l1.078,-1.9460000000000002 l-1.7640000000000002,1.6380000000000001 zM20.888,626.66 l-0.14,-0.08400000000000002 l-5.5440000000000005,5.138 l0.15400000000000003,0.04200000000000001 l0.04200000000000001,2.058 l2.8,-2.59 l-0.5880000000000001,2.744 l1.778,-0.29400000000000004 l1.498,-7.014 z" id="svg_98" class="" fill-opacity="1"/>
<path fill="#7f3303" d="M15.05,631.686 l-0.19600000000000004,0.35000000000000003 l-1.078,1.9460000000000002 l-0.8260000000000001,1.47 l-0.7140000000000001,1.288 l-0.504,0.8960000000000001 l-1.302,2.338 l-0.504,0.8960000000000001 l-1.134,2.03 l-0.07,0.14 l0.09800000000000003,-0.04200000000000001 l1.596,-0.5880000000000001 l0.406,-0.14 l1.596,-0.5880000000000001 l2.94,-1.064 l2.8840000000000003,-1.064 l2.492,-0.91 l-0.014000000000000002,-0.16800000000000004 l-1.4,-0.35000000000000003 l-1.7640000000000002,-0.44800000000000006 l-0.7000000000000001,-0.16800000000000004 l-1.3860000000000001,-0.35000000000000003 l-0.028000000000000004,-1.1480000000000001 l-0.028000000000000004,-1.6940000000000002 l-0.014000000000000002,-0.504 l-0.04200000000000001,-2.058 l-0.15400000000000003,-0.04200000000000001 l-0.15400000000000003,-0.028000000000000004 zM11.774000000000001,640.436 l0.32200000000000006,-0.6020000000000001 l1.96,-3.486 l0.04200000000000001,1.904 l2.156,0.546 l-4.074,1.484 l-0.406,0.15400000000000003 z" id="svg_97" class="" fill-opacity="1"/>

<path fill="#ccc" d="M23.66,695.66 q4.005,-3.993 4.004,-9.66 q0.0010000000000000002,-5.667 -4.004,-9.674 q-3.993,-3.991 -9.66,-3.99 q-0.19600000000000004,-0.0010000000000000002 -0.39200000000000007,0.014000000000000002 q-5.406,0.132 -9.282,3.976 l-0.014000000000000002,0.014000000000000002 l-0.028000000000000004,0.04200000000000001 q-0.038000000000000006,0.05200000000000001 -0.09800000000000003,0.09800000000000003 l-0.014000000000000002,0.028000000000000004 q-0.029000000000000005,0.030000000000000006 -0.05600000000000001,0.05600000000000001 q-1.7590000000000001,1.839 -2.702,4.032 q-1.073,2.473 -1.078,5.376 v0.05600000000000001 q0.004000000000000001,1.25 0.21000000000000002,2.408 h-0.014000000000000002 q0.6950000000000002,4.013 3.64,7.042 q0.030000000000000006,0.04300000000000001 0.05600000000000001,0.07 q0.019000000000000003,0.017000000000000005 0.028000000000000004,0.028000000000000004 q0.016000000000000004,0.014000000000000002 0.028000000000000004,0.028000000000000004 l0.028000000000000004,0.04200000000000001 l0.014000000000000002,0.014000000000000002 q3.8810000000000002,3.863 9.296,4.004 v0 q0.019000000000000003,0 0.028000000000000004,0 h0.028000000000000004 q0.16500000000000004,0 0.32200000000000006,0 q5.667,0.0010000000000000002 9.66,-4.004 zM23.058,677.726 q2.9690000000000003,3.213 3.192,7.574 h-2.59 q-0.203,-3.298 -2.422,-5.768 l1.82,-1.806 zM26.25,686.7 q-0.22500000000000003,4.3950000000000005 -3.248,7.616 l-1.82,-1.82 q2.273,-2.457 2.478,-5.796 h2.59 zM22.05,676.746 l-1.82,1.806 q-2.504,-2.125 -5.866,-2.24 v-2.576 q4.422,0.11900000000000002 7.686,3.01 zM12.964,673.778 v2.59 q-3.135,0.28200000000000003 -5.502,2.422 l-1.792,-1.792 q3.112,-2.901 7.2940000000000005,-3.22 zM20.244,680.526 q1.815,2.056 2.016,4.774 h-6.804 l4.788,-4.774 zM19.222,679.546 l-4.8580000000000005,4.8580000000000005 v-6.692 q2.779,0.11200000000000002 4.8580000000000005,1.834 zM12.964,677.768 v6.524 l-4.508,-4.508 q1.9500000000000002,-1.738 4.508,-2.016 zM5.124,682.01 v0.014000000000000002 q-0.6740000000000002,1.533 -0.798,3.276 h-2.576 q0.11500000000000002,-2.22 0.9520000000000001,-4.144 q0.7290000000000001,-1.689 1.988,-3.15 l1.82,1.82 q-0.8610000000000001,1.032 -1.3860000000000001,2.184 zM6.398,682.584 q0.42700000000000005,-0.927 1.106,-1.7640000000000002 l4.48,4.48 h-6.244 q0.10300000000000001,-1.4420000000000002 0.6580000000000001,-2.716 v0 zM5.894,687.918 q-0.11800000000000002,-0.5840000000000001 -0.16800000000000004,-1.218 h6.3420000000000005 l-4.508,4.536 q-1.233,-1.497 -1.6800000000000002,-3.346 l0.014000000000000002,0.028000000000000004 zM1.75,686.7 h2.576 q0.05000000000000001,0.781 0.19600000000000004,1.498 v0.014000000000000002 q0.534,2.228 2.044,4.018 l-1.82,1.82 q-2.258,-2.559 -2.8280000000000003,-5.852 q-0.12300000000000001,-0.7270000000000001 -0.16800000000000004,-1.498 zM5.726,695.058 l1.806,-1.82 q2.3440000000000003,2.116 5.432,2.408 v2.576 q-4.143,-0.31400000000000006 -7.238,-3.164 zM22.26,686.7 q-0.20600000000000002,2.758 -2.072,4.802 l-4.816,-4.802 h6.888 zM14.364,698.25 v-2.576 q3.334,-0.10200000000000001 5.8100000000000005,-2.198 l1.82,1.82 q-3.242,2.85 -7.63,2.954 zM14.364,687.68 l4.83,4.816 q-2.077,1.685 -4.83,1.778 v-6.594 zM12.964,687.792 v6.44 q-2.511,-0.276 -4.438,-1.988 l4.438,-4.452 z" id="svg_105" class=""/>
<path fill="#d68d35" d="M13.874,675.738 l-8.218,9.688 l3.556,8.512 l11.522,0.09800000000000003 l4.424,-7.364 l-11.284,-10.934 zM9.674,693.28 l-2.086,-5.208 l7.882,-8.54 l6.16,8.218 l-4.424,4.928 l-7.532,0.6020000000000001 z" id="svg_104" class="" fill-opacity="1"/>
<path fill="#18a3bf" d="M7.588,688.072 l2.086,5.208 l7.532,-0.6020000000000001 l4.424,-4.928 l-6.16,-8.218 l-7.882,8.54 zM11.452,691.18 l-0.014000000000000002,-3.724 l3.038,-3.584 l2.6180000000000003,3.864 l-1.554,3.276 l-4.088,0.16800000000000004 z" id="svg_103" class="" fill-opacity="1"/>
<path fill="#7f3303" d="M11.438,687.456 l0.014000000000000002,3.724 l4.088,-0.16800000000000004 l1.554,-3.276 l-2.6180000000000003,-3.864 l-3.038,3.584 z" id="svg_102" class="" fill-opacity="1"/>

<path fill="#ccc" d="M1.6800000000000002,720.84 h-1.4 v26.88 h26.88 v-1.4 h-25.48 v-25.48 z" id="svg_111" class=""/>
<path fill="#18a3bf" d="M11.2,744.934 h5.6 v-11.214 h-5.6 v11.214 z" id="svg_110" class="" fill-opacity="1"/>
<path fill="#7f3303" d="M9.52,728.666 h-5.6 v16.268 h5.6 v-16.268 z" id="svg_109" class="" fill-opacity="1"/>
<path fill="#d68d35" d="M24.08,744.934 v-13.454 h-5.6 v13.454 h5.6 z" id="svg_108" class="" fill-opacity="1"/>
<path fill="#d68d35" d="M27.65,727.924 l-4.368,-3.234 l-8.596,3.262 l-7.672000000000001,-6.832 l-3.962,1.456 l0.6720000000000002,1.834 l2.856,-1.05 l7.686,6.846 l8.708,-3.3040000000000003 l3.5140000000000002,2.604 l1.162,-1.582 z" id="svg_107" class="" fill-opacity="1"/>

<path fill="#ccc" d="M1.6800000000000002,768.84 h-1.4 v26.88 h26.88 v-1.4 h-25.48 v-25.48 z" id="svg_116" class=""/>
<path fill="#18a3bf" d="M11.2,792.934 h5.6 v-19.068 h-5.6 v19.068 z" id="svg_115" class="" fill-opacity="1"/>
<path fill="#7f3303" d="M9.52,776.666 h-5.6 v16.268 h5.6 v-16.268 z" id="svg_114" class="" fill-opacity="1"/>
<path fill="#d68d35" d="M24.08,792.934 v-8.96 h-5.6 v8.96 h5.6 zM27.832,774.552 l-1.9460000000000002,-0.23800000000000002 q-0.16600000000000004,1.3900000000000001 -0.518,2.66 v0.014000000000000002 q-0.47700000000000004,1.83 -1.036,2.072 q-0.19100000000000003,-0.133 -0.812,-0.98 v-0.014000000000000002 q-0.266,-0.36800000000000005 -2.114,-3.3040000000000003 q-3.518,-5.5920000000000005 -6.188,-5.936 v0 q-1.855,-0.35300000000000004 -3.906,0.7420000000000001 v0 q-2.386,1.267 -3.024,1.456 q-1.6350000000000002,0.462 -3.052,-0.56 q-0.7230000000000001,-0.519 -1.12,-1.134 l-1.6660000000000001,1.036 q0.5690000000000001,0.925 1.6380000000000001,1.6940000000000002 q2.195,1.582 4.732,0.8540000000000001 q0.7340000000000001,-0.18900000000000003 3.416,-1.61 v-0.014000000000000002 q1.3900000000000001,-0.7370000000000001 2.632,-0.532 h0.014000000000000002 q1.9849999999999999,0.47300000000000003 4.872,5.054 q1.8920000000000001,3.012 2.184,3.416 h0.014000000000000002 q1.528,2.119 2.632,1.778 q1.7600000000000002,-0.03200000000000001 2.6740000000000004,-3.5140000000000002 v0 q0.38900000000000007,-1.404 0.5740000000000001,-2.94 z" id="svg_113" class="" fill-opacity="1"/>

<path fill="#ccc" d="M1.6800000000000002,816.84 h-1.4 v26.88 h26.88 v-1.4 h-25.48 v-25.48 z" id="svg_122" class=""/>
<path fill="#d68d35" d="M27.65,823.924 l-4.368,-3.234 l-8.596,3.262 l-7.672000000000001,-6.832 l-3.962,1.456 l0.6720000000000002,1.834 l2.856,-1.05 l7.686,6.846 l8.708,-3.3040000000000003 l3.5140000000000002,2.604 l1.162,-1.582 z" id="svg_121" class="" fill-opacity="1"/>
<path fill="#d68d35" d="M11.2,829.44 v3.5 h5.6 v-3.5 h-5.6 zM3.92,828.964 h5.6 v-4.298 h-5.6 v4.298 zM24.08,831.652 v-4.172 h-5.6 v4.172 h5.6 z" id="svg_120" class="" fill-opacity="1"/>
<path fill="#7f3303" d="M11.2,837.098 v3.8360000000000003 h5.6 v-3.8360000000000003 h-5.6 zM9.52,840.934 v-6.09 h-5.6 v6.09 h5.6 zM24.08,840.934 v-4.914 h-5.6 v4.914 h5.6 z" id="svg_119" class="" fill-opacity="1"/>
<path fill="#18a3bf" d="M11.2,832.94 v4.158 h5.6 v-4.158 h-5.6 zM9.52,828.964 h-5.6 v5.88 h5.6 v-5.88 zM24.08,836.02 v-4.368 h-5.6 v4.368 h5.6 z" id="svg_118" class="" fill-opacity="1"/>

<path fill="#ccc" d="M1.6800000000000002,864.84 h-1.4 v26.88 h26.88 v-1.4 h-25.48 v-25.48 z" id="svg_127" class=""/>
<path fill="#d68d35" d="M27.832,870.552 l-1.9460000000000002,-0.23800000000000002 q-0.16600000000000004,1.3900000000000001 -0.518,2.66 v0.014000000000000002 q-0.47700000000000004,1.83 -1.036,2.072 q-0.19100000000000003,-0.133 -0.812,-0.98 v-0.014000000000000002 q-0.266,-0.36800000000000005 -2.114,-3.3040000000000003 q-3.518,-5.5920000000000005 -6.188,-5.936 v0 q-1.855,-0.35300000000000004 -3.906,0.7420000000000001 v0 q-2.386,1.267 -3.024,1.456 q-1.6350000000000002,0.462 -3.052,-0.56 q-0.7230000000000001,-0.519 -1.12,-1.134 l-1.6660000000000001,1.036 q0.5690000000000001,0.925 1.6380000000000001,1.6940000000000002 q2.195,1.582 4.732,0.8540000000000001 q0.7340000000000001,-0.18900000000000003 3.416,-1.61 v-0.014000000000000002 q1.3900000000000001,-0.7370000000000001 2.632,-0.532 h0.014000000000000002 q1.9849999999999999,0.47300000000000003 4.872,5.054 q1.8920000000000001,3.012 2.184,3.416 h0.014000000000000002 q1.528,2.119 2.632,1.778 q1.7600000000000002,-0.03200000000000001 2.6740000000000004,-3.5140000000000002 v0 q0.38900000000000007,-1.404 0.5740000000000001,-2.94 zM3.92,872.666 v4.298 h5.6 v-4.298 h-5.6 zM16.8,875.354 v-5.474 h-5.6 v5.474 h5.6 zM24.08,881.654 v-3.094 h-5.6 v3.094 h5.6 z" id="svg_126" class="" fill-opacity="1"/>
<path fill="#7f3303" d="M9.52,888.934 v-6.09 h-5.6 v6.09 h5.6 zM11.2,882.396 v6.538 h5.6 v-6.538 h-5.6 zM24.08,888.934 v-3.976 h-5.6 v3.976 h5.6 z" id="svg_125" class="" fill-opacity="1"/>
<path fill="#18a3bf" d="M9.52,876.964 h-5.6 v5.88 h5.6 v-5.88 zM16.8,882.396 v-7.042 h-5.6 v7.042 h5.6 zM24.08,884.958 v-3.3040000000000003 h-5.6 v3.3040000000000003 h5.6 z" id="svg_124" class="" fill-opacity="1"/>

<path fill="#ccc" d="M27.72,912.84 h-1.4 v25.48 h-24.64 v-25.48 h-1.4 v26.88 h27.44 v-26.88 z" id="svg_132" class=""/>
<path fill="#7f3303" d="M25.34,927.092 l-1.358,-1.4140000000000001 l-4.396,4.242 h-9.45 l-3.724,5.166 l1.596,1.1480000000000001 l3.136,-4.354 h9.24 l4.956,-4.788 z" id="svg_131" class="" fill-opacity="1"/>
<path fill="#18a3bf" d="M25.69,921.674 l-1.358,-1.4140000000000001 l-6.3,6.006 l-9.31,0.014000000000000002 l-4.914,6.678 l1.582,1.162 l4.3260000000000005,-5.88 l9.1,-0.014000000000000002 l6.8740000000000006,-6.552 z" id="svg_130" class="" fill-opacity="1"/>
<path fill="#d68d35" d="M25.2,916.998 l-1.358,-1.4140000000000001 l-7.35,7.07 l-9.03,0.028000000000000004 l-5.026,6.482 l1.554,1.204 l4.438,-5.726 l8.862,-0.028000000000000004 l7.91,-7.616 z" id="svg_129" class="" fill-opacity="1"/>

<path fill="#7f3303" d="M25.018,968.834 l0.14,-1.96 q-5.392,-0.38700000000000007 -9.464,2.352 h-0.014000000000000002 l-0.014000000000000002,0.014000000000000002 q-1.7160000000000002,1.245 -2.492,1.7080000000000002 v-0.014000000000000002 q-1.045,0.6210000000000001 -2.044,0.56 h-0.014000000000000002 q-0.8750000000000001,-0.11900000000000002 -2.058,-1.302 q-1.921,-1.939 -3.696,-2.52 h-0.014000000000000002 q-0.6620000000000001,-0.21200000000000002 -1.61,-0.19600000000000004 l-0.7280000000000001,0.04200000000000001 l0.16800000000000004,1.96 l0.6720000000000002,-0.04200000000000001 q0.515,-0.0020000000000000005 0.8820000000000001,0.09800000000000003 q0.017000000000000005,0.011000000000000003 0.028000000000000004,0.014000000000000002 q1.3860000000000001,0.49400000000000005 2.912,2.03 q1.856,1.855 3.332,1.8760000000000001 q1.546,0.129 3.164,-0.8260000000000001 h0.014000000000000002 q0.8140000000000001,-0.48500000000000004 2.604,-1.778 q3.544,-2.357 8.232,-2.016 z" id="svg_137" class="" fill-opacity="1"/>
<path fill="#d68d35" d="M3.64,972.95 h-0.11200000000000002 l-0.6160000000000001,0.18200000000000002 l0.56,1.8760000000000001 l0.3360000000000001,-0.09800000000000003 q0.6740000000000002,0.024000000000000004 1.904,0.42000000000000004 h0.014000000000000002 q2.104,0.7430000000000001 4.256,4.06 q0.43900000000000006,-0.20400000000000001 0.8680000000000001,-0.47600000000000003 h0.014000000000000002 q0.05100000000000001,-0.030000000000000006 0.11200000000000002,-0.07 l0.014000000000000002,-0.014000000000000002 q0.30600000000000005,-0.19600000000000004 0.6580000000000001,-0.47600000000000003 q-2.6430000000000002,-4.095 -5.334,-4.886 h0.014000000000000002 q-1.7630000000000001,-0.5700000000000001 -2.688,-0.518 zM25.06,975.344 l-0.28,-1.932 q-2.67,0.3940000000000001 -4.606,2.184 v0.014000000000000002 q-1.3,1.187 -2.5620000000000003,3.444 v-0.014000000000000002 q-1.445,2.563 -1.6380000000000001,2.814 l-0.028000000000000004,0.028000000000000004 q-0.5640000000000001,0.781 -1.176,0.798 h-0.014000000000000002 q-0.3970000000000001,-0.131 -0.98,-0.924 q-0.19800000000000004,-0.277 -1.092,-1.7360000000000002 q-0.32500000000000007,0.26 -0.6160000000000001,0.44800000000000006 q-0.09900000000000003,0.06600000000000002 -0.18200000000000002,0.11200000000000002 q-0.007000000000000002,0.011000000000000003 -0.014000000000000002,0.014000000000000002 q-0.42200000000000004,0.26 -0.8540000000000001,0.462 q0.9590000000000001,1.566 1.176,1.862 q1.283,1.746 2.422,1.722 l-0.014000000000000002,-0.014000000000000002 q1.586,0.22800000000000004 2.912,-1.554 q0.011000000000000003,-0.007000000000000002 0.014000000000000002,-0.028000000000000004 q0.28,-0.35600000000000004 1.792,-3.038 v0 q1.086,-1.936 2.184,-2.968 h0.014000000000000002 q1.485,-1.389 3.542,-1.6940000000000002 z" id="svg_136" class="" fill-opacity="1"/>
<path fill="#18a3bf" d="M24.808,972.152 l0.29400000000000004,-1.932 q-3.2640000000000002,-0.504 -6.048,1.218 q-1.594,0.981 -4.228,3.822 q-1.8980000000000001,2.072 -3.178,3.094 q-0.35200000000000004,0.28 -0.6580000000000001,0.47600000000000003 l-0.014000000000000002,0.014000000000000002 q-0.06100000000000001,0.04000000000000001 -0.11200000000000002,0.07 h-0.014000000000000002 q-0.42900000000000005,0.272 -0.8680000000000001,0.47600000000000003 q-1.7850000000000001,0.81 -3.7800000000000002,0.5880000000000001 q-1.832,-0.203 -2.408,-0.44800000000000006 l-0.8400000000000001,1.7640000000000002 q0.7120000000000001,0.37100000000000005 3.024,0.6300000000000001 v0 q2.6740000000000004,0.29900000000000004 5.04,-0.8680000000000001 q0.43200000000000005,-0.202 0.8540000000000001,-0.462 q0.007000000000000002,-0.003000000000000001 0.014000000000000002,-0.014000000000000002 q0.08300000000000002,-0.04500000000000001 0.18200000000000002,-0.11200000000000002 q0.29100000000000004,-0.18800000000000003 0.6160000000000001,-0.44800000000000006 q1.435,-1.092 3.584,-3.43 q2.392,-2.577 3.822,-3.486 q2.172,-1.344 4.718,-0.9520000000000001 z" id="svg_135" class="" fill-opacity="1"/>
<path fill="#ccc" d="M27.72,960.84 h-1.4 v25.48 h-24.64 v-25.48 h-1.4 v26.88 h27.44 v-26.88 z" id="svg_134" class=""/>

<path fill="#d68d35" d="M10.08,1033.2 h3.08 v-22.232 h-3.08 v22.232 zM25.48,1033.2 v-16.268 h-3.08 v16.268 h3.08 z" id="svg_142" class="" fill-opacity="1"/>
<path fill="#7f3303" d="M15.12,1033.2 h3.08 v-10.164 h-3.08 v10.164 zM2.8,1033.2 h3.08 v-11.06 h-3.08 v11.06 z" id="svg_141" class="" fill-opacity="1"/>
<path fill="#18a3bf" d="M18.76,1033.2 h3.08 v-8.008 h-3.08 v8.008 zM9.8,1019.872 h-3.08 v13.328 h3.08 v-13.328 z" id="svg_140" class="" fill-opacity="1"/>
<path fill="#ccc" d="M27.72,1008.84 h-1.4 v25.48 h-24.64 v-25.48 h-1.4 v26.88 h27.44 v-26.88 z" id="svg_139" class=""/>

<path fill="#ccc" d="M1.6800000000000002,1056.84 h-1.4 v26.88 h26.88 v-1.4 h-25.48 v-25.48 z" id="svg_147" class=""/>
<path fill="#7f3303" d="M13.454,1074.494 q-0.546,0 -0.98,0.39200000000000007 q-0.37800000000000006,0.406 -0.37800000000000006,0.9380000000000001 q0,0.5880000000000001 0.37800000000000006,0.9520000000000001 q0.43400000000000005,0.42000000000000004 0.98,0.42000000000000004 q0.5740000000000001,0 0.9520000000000001,-0.42000000000000004 q0.406,-0.36400000000000005 0.406,-0.9520000000000001 q0,-0.532 -0.406,-0.9380000000000001 q-0.37800000000000006,-0.39200000000000007 -0.9520000000000001,-0.39200000000000007 zM18.69,1071.624 q0,-0.56 -0.37800000000000006,-0.9380000000000001 q-0.42000000000000004,-0.406 -0.9520000000000001,-0.406 q-0.5880000000000001,0 -0.9520000000000001,0.406 q-0.406,0.37800000000000006 -0.406,0.9380000000000001 q0,0.5740000000000001 0.406,0.98 q0.36400000000000005,0.42000000000000004 0.9520000000000001,0.42000000000000004 q0.532,0 0.9520000000000001,-0.42000000000000004 q0.37800000000000006,-0.406 0.37800000000000006,-0.98 zM10.975999999999999,1073.108 q-0.39200000000000007,-0.42000000000000004 -0.924,-0.42000000000000004 q-0.5740000000000001,0 -1.022,0.42000000000000004 q-0.36400000000000005,0.37800000000000006 -0.36400000000000005,0.924 q0,0.6160000000000001 0.36400000000000005,0.994 q0.44800000000000006,0.42000000000000004 1.022,0.42000000000000004 q0.532,0 0.924,-0.42000000000000004 q0.43400000000000005,-0.37800000000000006 0.43400000000000005,-0.994 q0,-0.546 -0.43400000000000005,-0.924 z" id="svg_146" class="" fill-opacity="1"/>
<path fill="#d68d35" d="M13.23,1072.562 q0.546,0 0.91,-0.37800000000000006 q0.406,-0.39200000000000007 0.406,-0.9660000000000001 q0,-0.504 -0.406,-0.9380000000000001 q-0.36400000000000005,-0.39200000000000007 -0.91,-0.39200000000000007 q-0.5880000000000001,0 -0.9660000000000001,0.39200000000000007 q-0.42000000000000004,0.43400000000000005 -0.42000000000000004,0.9380000000000001 q0,0.5740000000000001 0.42000000000000004,0.9660000000000001 q0.37800000000000006,0.37800000000000006 0.9660000000000001,0.37800000000000006 zM21.112,1065.688 q0.462,-0.266 0.6160000000000001,-0.8400000000000001 q0.15400000000000003,-0.546 -0.14,-1.022 q-0.28,-0.49000000000000005 -0.8260000000000001,-0.6160000000000001 q-0.546,-0.18200000000000002 -1.008,0.07 q-0.518,0.3360000000000001 -0.6440000000000001,0.8960000000000001 q-0.15400000000000003,0.532 0.14,1.05 q0.28,0.43400000000000005 0.8260000000000001,0.5880000000000001 q0.49000000000000005,0.16800000000000004 1.036,-0.126 zM23.856,1065.702 q-0.5880000000000001,0 -0.9660000000000001,0.39200000000000007 q-0.42000000000000004,0.406 -0.42000000000000004,0.9520000000000001 q0,0.56 0.42000000000000004,0.994 q0.37800000000000006,0.37800000000000006 0.9660000000000001,0.37800000000000006 q0.546,0 0.9380000000000001,-0.37800000000000006 q0.39200000000000007,-0.43400000000000005 0.39200000000000007,-0.994 q0,-0.546 -0.39200000000000007,-0.9520000000000001 q-0.39200000000000007,-0.39200000000000007 -0.9380000000000001,-0.39200000000000007 zM24.262,1061.726 q-0.5740000000000001,0 -0.994,0.406 q-0.35000000000000003,0.42000000000000004 -0.35000000000000003,0.9520000000000001 q0,0.546 0.35000000000000003,0.9660000000000001 q0.42000000000000004,0.37800000000000006 0.994,0.37800000000000006 t0.9520000000000001,-0.37800000000000006 q0.39200000000000007,-0.42000000000000004 0.39200000000000007,-0.9660000000000001 q0,-0.532 -0.39200000000000007,-0.9520000000000001 q-0.37800000000000006,-0.406 -0.9520000000000001,-0.406 z" id="svg_145" class="" fill-opacity="1"/>
<path fill="#18a3bf" d="M5.362,1078.372 q-0.406,-0.42000000000000004 -0.924,-0.42000000000000004 q-0.546,0 -0.9660000000000001,0.42000000000000004 q-0.39200000000000007,0.39200000000000007 -0.39200000000000007,0.9660000000000001 t0.39200000000000007,0.9660000000000001 q0.42000000000000004,0.406 0.9660000000000001,0.406 q0.518,0 0.924,-0.406 q0.406,-0.39200000000000007 0.406,-0.9660000000000001 t-0.406,-0.9660000000000001 zM6.8740000000000006,1075.908 q0,-0.56 -0.39200000000000007,-0.994 q-0.42000000000000004,-0.36400000000000005 -0.9520000000000001,-0.36400000000000005 q-0.5740000000000001,0 -0.9660000000000001,0.36400000000000005 q-0.37800000000000006,0.43400000000000005 -0.37800000000000006,0.994 t0.37800000000000006,0.9380000000000001 q0.39200000000000007,0.44800000000000006 0.9660000000000001,0.44800000000000006 q0.532,0 0.9520000000000001,-0.44800000000000006 q0.39200000000000007,-0.37800000000000006 0.39200000000000007,-0.9380000000000001 zM7.994,1072.478 q0,-0.5740000000000001 -0.406,-0.9660000000000001 q-0.37800000000000006,-0.406 -0.9380000000000001,-0.406 q-0.5880000000000001,0 -0.994,0.406 q-0.406,0.39200000000000007 -0.406,0.9660000000000001 q0,0.56 0.406,0.9520000000000001 t0.994,0.39200000000000007 q0.56,0 0.9380000000000001,-0.39200000000000007 q0.406,-0.39200000000000007 0.406,-0.9520000000000001 zM18.984,1066.906 q-0.5880000000000001,0 -0.994,0.37800000000000006 q-0.36400000000000005,0.37800000000000006 -0.36400000000000005,0.98 q0,0.5740000000000001 0.36400000000000005,0.9520000000000001 q0.406,0.39200000000000007 0.994,0.39200000000000007 q0.532,0 0.9520000000000001,-0.39200000000000007 q0.39200000000000007,-0.37800000000000006 0.39200000000000007,-0.9520000000000001 q0,-0.6020000000000001 -0.39200000000000007,-0.98 q-0.42000000000000004,-0.37800000000000006 -0.9520000000000001,-0.37800000000000006 zM22.904,1071.708 q0.518,-0.30800000000000005 0.6300000000000001,-0.8260000000000001 q0.15400000000000003,-0.56 -0.126,-1.064 q-0.29400000000000004,-0.47600000000000003 -0.8260000000000001,-0.5880000000000001 q-0.532,-0.15400000000000003 -1.036,0.09800000000000003 q-0.504,0.29400000000000004 -0.6300000000000001,0.8400000000000001 q-0.15400000000000003,0.518 0.126,1.008 q0.28,0.532 0.8540000000000001,0.6580000000000001 q0.518,0.15400000000000003 1.008,-0.126 z" id="svg_144" class="" fill-opacity="1"/>

<path fill="#ccc" d="M1.6800000000000002,1104.84 h-1.4 v26.88 h26.88 v-1.4 h-25.48 v-25.48 z" id="svg_152" class=""/>
<path fill="#7f3303" d="M20.202,1122.564 q0,-1.7640000000000002 -1.232,-2.996 q-1.246,-1.204 -2.982,-1.204 t-2.968,1.204 q-1.232,1.232 -1.232,2.996 q0,1.722 1.232,2.954 q1.232,1.246 2.968,1.246 t2.982,-1.246 q1.232,-1.232 1.232,-2.954 z" id="svg_151" class="" fill-opacity="1"/>
<path fill="#18a3bf" d="M5.474,1114.92 q-1.008,0 -1.7080000000000002,0.6860000000000002 q-0.6860000000000002,0.7140000000000001 -0.6860000000000002,1.6940000000000002 q0,0.9660000000000001 0.6860000000000002,1.6940000000000002 q0.7000000000000001,0.6860000000000002 1.7080000000000002,0.6860000000000002 q0.98,0 1.6940000000000002,-0.6860000000000002 q0.6580000000000001,-0.7280000000000001 0.6580000000000001,-1.6940000000000002 q0,-0.98 -0.6580000000000001,-1.6940000000000002 q-0.7140000000000001,-0.6860000000000002 -1.6940000000000002,-0.6860000000000002 zM5.04,1110.16 q-0.784,0 -1.372,0.532 q-0.5880000000000001,0.5880000000000001 -0.5880000000000001,1.428 q0,0.784 0.5880000000000001,1.372 t1.372,0.5880000000000001 t1.372,-0.5880000000000001 t0.5880000000000001,-1.372 q0,-0.8400000000000001 -0.5880000000000001,-1.428 q-0.5880000000000001,-0.532 -1.372,-0.532 zM27.09,1121.388 q0,-1.218 -0.8680000000000001,-2.086 q-0.8820000000000001,-0.8680000000000001 -2.072,-0.8680000000000001 q-1.218,0 -2.058,0.8680000000000001 q-0.8680000000000001,0.8680000000000001 -0.8680000000000001,2.086 t0.8680000000000001,2.086 q0.8400000000000001,0.8540000000000001 2.058,0.8540000000000001 q1.19,0 2.072,-0.8540000000000001 q0.8680000000000001,-0.8680000000000001 0.8680000000000001,-2.086 z" id="svg_150" class="" fill-opacity="1"/>
<path fill="#d68d35" d="M13.16,1111.98 q0,-1.134 -0.77,-1.904 q-0.7560000000000001,-0.7560000000000001 -1.8900000000000001,-0.7560000000000001 q-1.092,0 -1.8760000000000001,0.7560000000000001 q-0.784,0.77 -0.784,1.904 q0,1.092 0.784,1.862 q0.784,0.798 1.8760000000000001,0.798 q1.134,0 1.8900000000000001,-0.798 q0.77,-0.77 0.77,-1.862 zM21.98,1114.612 q-0.77,-0.7420000000000001 -1.7640000000000002,-0.7420000000000001 q-1.05,0 -1.778,0.7420000000000001 q-0.7280000000000001,0.7280000000000001 -0.7280000000000001,1.778 q0,1.008 0.7280000000000001,1.7640000000000002 q0.7280000000000001,0.7140000000000001 1.778,0.7140000000000001 q0.994,0 1.7640000000000002,-0.7140000000000001 q0.7140000000000001,-0.7560000000000001 0.7140000000000001,-1.7640000000000002 q0,-1.05 -0.7140000000000001,-1.778 z" id="svg_149" class="" fill-opacity="1"/>

<path fill="#d68d35" d="M14,1153.344 q-5.236,0 -8.96,3.696 l8.96,8.96 v-12.656 z" id="svg_156" class="" fill-opacity="1"/>
<path fill="#18a3bf" d="M1.344,1166 q0,5.236 3.696,8.932 q0.007000000000000002,0.007000000000000002 0.014000000000000002,0.014000000000000002 l8.946,-8.946 l-8.96,-8.96 q-3.696,3.724 -3.696,8.96 z" id="svg_155" class="" fill-opacity="1"/>
<path fill="#7f3303" d="M22.946,1174.932 q3.71,-3.696 3.71,-8.932 t-3.71,-8.96 q-3.71,-3.696 -8.946,-3.696 v12.656 l-8.946,8.946 q0.06900000000000002,0.06800000000000002 0.14,0.126 q3.676,3.584 8.806000000000001,3.584 q5.236,0 8.946,-3.724 z" id="svg_154" class="" fill-opacity="1"/>

<path fill="#18a3bf" d="M6.328,1208.218 l-2.45,-1.8760000000000001 q-2.534,3.3040000000000003 -2.534,7.658 q0,5.25 3.696,8.946 q3.71,3.71 8.96,3.71 q3.175,0 5.782,-1.358 q1.6640000000000001,-0.8660000000000001 3.094,-2.282 l-2.156,-2.198 q-0.6320000000000001,0.6280000000000001 -1.33,1.106 q-2.347,1.653 -5.39,1.6520000000000001 q-3.975,0 -6.79,-2.814 q-2.786,-2.787 -2.786,-6.7620000000000005 q0.0010000000000000002,-3.287 1.904,-5.782 zM7.84,1218.956 q0.267,0.32300000000000006 0.56,0.6160000000000001 q2.323,2.324 5.6,2.324 q3.277,-0.0010000000000000002 5.572,-2.324 q0.918,-0.8980000000000001 1.47,-1.96 l-7.042,-3.612 l-6.16,4.956 z" id="svg_160" class="" fill-opacity="1"/>
<path fill="#d68d35" d="M14,1204.424 v-3.08 q-3.473,0 -6.272,1.61 q-0.16800000000000004,0.10400000000000001 -0.3360000000000001,0.21000000000000002 q-0.41300000000000003,0.254 -0.812,0.546 q-0.801,0.5930000000000001 -1.54,1.33 q-0.6310000000000001,0.6330000000000001 -1.162,1.302 l2.45,1.8760000000000001 q0.406,-0.516 0.8820000000000001,-1.008 q0.018000000000000002,-0.003000000000000001 0.028000000000000004,-0.014000000000000002 q0.7520000000000001,-0.7440000000000001 1.582,-1.288 q0.274,-0.17400000000000002 0.546,-0.3360000000000001 q2.078,-1.1480000000000001 4.634,-1.1480000000000001 zM9.926,1207.196 q-0.806,0.501 -1.526,1.204 q-2.297,2.322 -2.2960000000000003,5.6 q0,2.85 1.7360000000000002,4.956 l6.16,-4.956 l-4.074,-6.804 z" id="svg_159" class="" fill-opacity="1"/>
<path fill="#7f3303" d="M23.576,1214 q0,0.035 0,0.07 q-0.014000000000000002,2.332 -1.008,4.256 q-0.0010000000000000002,0.015000000000000003 -0.014000000000000002,0.028000000000000004 q-0.6660000000000001,1.302 -1.792,2.408 q-0.016000000000000004,0.030000000000000006 -0.04200000000000001,0.05600000000000001 l2.156,2.198 q0.036000000000000004,-0.036000000000000004 0.07,-0.07 q2.058,-2.05 2.968,-4.578 l0.014000000000000002,-0.014000000000000002 q0.7170000000000001,-1.9929999999999999 0.7280000000000001,-4.284 q0,-0.035 0,-0.07 q0,-5.25 -3.71,-8.96 q-3.6710000000000003,-3.6710000000000003 -8.876,-3.696 q-0.035,0 -0.07,0 v3.08 q0.035,0 0.07,0 q3.93,0.025000000000000005 6.692,2.786 q2.814,2.815 2.814,6.79 zM19.572,1208.4 q-2.295,-2.2960000000000003 -5.572,-2.2960000000000003 q-2.056,0 -3.738,0.8960000000000001 q-0.16000000000000003,0.09800000000000003 -0.32200000000000006,0.19600000000000004 q-0.007000000000000002,0.004000000000000001 -0.014000000000000002,0 l4.074,6.804 l7.042,3.612 q0.8300000000000001,-1.578 0.8540000000000001,-3.5 q0,-0.05600000000000001 0,-0.11200000000000002 q0,-3.277 -2.324,-5.6 z" id="svg_158" class="" fill-opacity="1"/>

<path fill="#18a3bf" d="M4.41,1261.342 l-0.014000000000000002,0.014000000000000002 l9.604,9.59 l0.028000000000000004,-0.028000000000000004 l9.59,-9.576 q-3.99,-3.976 -9.618,-3.976 q-5.614,0 -9.59,3.976 z" id="svg_164" class="" fill-opacity="1"/>
<path fill="#7f3303" d="M27.58,1270.96 v-0.014000000000000002 h-13.58 l-0.028000000000000004,-0.028000000000000004 l-9.576,-9.562 q-0.07,0.07 -0.14,0.14 q-3.826,3.952 -3.8360000000000003,9.422 q0,0.014000000000000002 0,0.028000000000000004 v0.014000000000000002 h27.16 z" id="svg_163" class="" fill-opacity="1"/>
<path fill="#d68d35" d="M27.58,1270.946 q0,-0.014000000000000002 0,-0.028000000000000004 q-0.010000000000000002,-5.582 -3.962,-9.576 l-9.618,9.604 h13.58 z" id="svg_162" class="" fill-opacity="1"/>

<path fill="#7f3303" d="M9.52,1309.72 v5.04 h5.04 v-5.04 h-5.04 zM15.68,1315.88 v5.04 h5.04 v-5.04 h-5.04 zM9.52,1315.88 v5.04 h5.04 v-5.04 h-5.04 zM3.08,1315.88 v5.04 h5.04 v-5.04 h-5.04 zM8.12,1309.72 h-5.04 v5.04 h5.04 v-5.04 zM3.08,1303.56 v5.04 h5.04 v-5.04 h-5.04 z" id="svg_168" class="" fill-opacity="1"/>
<path fill="#18a3bf" d="M8.12,1302.44 v-5.04 h-5.04 v5.04 h5.04 zM20.72,1309.72 h-5.04 v5.04 h5.04 v-5.04 zM14.56,1308.6 v-5.04 h-5.04 v5.04 h5.04 zM15.68,1303.56 v5.04 h5.04 v-5.04 h-5.04 zM14.56,1302.44 v-5.04 h-5.04 v5.04 h5.04 zM27.16,1314.76 v-5.04 h-5.04 v5.04 h5.04 zM27.16,1320.92 v-5.04 h-5.04 v5.04 h5.04 z" id="svg_167" class="" fill-opacity="1"/>
<path fill="#d68d35" d="M20.72,1302.44 v-5.04 h-5.04 v5.04 h5.04 zM27.16,1308.6 v-5.04 h-5.04 v5.04 h5.04 zM27.16,1302.44 v-5.04 h-5.04 v5.04 h5.04 z" id="svg_166" class="" fill-opacity="1"/>

<path fill="#d68d35" d="M7.308,1361.206 h-4.228 v4.032 h4.228 v-4.032 zM14.434,1361.206 h-1.596 v4.704 h1.596 v-4.704 zM22.764,1357.16 v-8.134 h-2.87 v-4.186 h-3.402 v4.2 h1.7080000000000002 v3.01 h-5.502 v2.954 h-2.394 v-5.964 h-1.792 v-4.2 h-5.432 v4.214 h4.004 v8.106 h3.206 v0.014000000000000002 h7.812 v8.694 h3.6820000000000004 v3.052 h5.376 v-3.038 h-2.856 v-4.774 h-3.612 v-3.948 h2.072 z" id="svg_172" class="" fill-opacity="1"/>
<path fill="#18a3bf" d="M3.08,1365.238 v3.6820000000000004 h7.238 v-3.6820000000000004 h-7.238 zM10.29,1357.174 v-0.014000000000000002 h-3.206 v-8.106 h-4.004 v12.152 h7.21 v-4.032 zM22.764,1349.026 v8.134 h-2.072 v3.948 h3.612 v4.774 h2.856 v-21.042 h-7.266 v4.186 h2.87 z" id="svg_171" class="" fill-opacity="1"/>
<path fill="#7f3303" d="M10.29,1361.206 h-2.982 v4.032 h3.01 v3.6820000000000004 h11.466 v-3.052 h-3.6820000000000004 v-8.694 h-7.812 v4.032 zM12.838000000000001,1361.206 h1.596 v4.704 h-1.596 v-4.704 zM16.492,1349.04 v-4.2 h-7.98 v4.2 h1.792 v5.964 h2.394 v-2.954 h5.502 v-3.01 h-1.7080000000000002 z" id="svg_170" class="" fill-opacity="1"/>

<path fill="#b79480" d="M13.426,1400.652 h-10.346 v16.268 h10.346 v-16.268 z" id="svg_177" class="" fill-opacity="1"/>
<path fill="#d1b09c" d="M13.426,1399.532 v-6.692 h-10.346 v6.692 h10.346 z" id="svg_176" class="" fill-opacity="1"/>
<path fill="#a07158" d="M27.16,1416.92 v-11.536 h-12.614 v11.536 h12.614 z" id="svg_175" class="" fill-opacity="1"/>
<path fill="#8e5b40" d="M27.16,1404.306 v-11.466 h-12.614 v11.466 h12.614 z" id="svg_174" class="" fill-opacity="1"/>

<path fill="#d68d35" d="M3.08,1464.92 h15.12 v-14.574 h-15.12 v14.574 z" id="svg_182" class="" fill-opacity="1"/>
<path fill="#7f3303" d="M18.2,1449.212 v-8.372 h-15.12 v8.372 h15.12 z" id="svg_181" class="" fill-opacity="1"/>
<path fill="#18a3bf" d="M27.16,1459.054 v-18.214 h-7.8260000000000005 v18.214 h7.8260000000000005 z" id="svg_180" class="" fill-opacity="1"/>
<path fill="#f2932e" d="M27.16,1464.92 v-4.774 h-7.8260000000000005 v4.774 h7.8260000000000005 z" id="svg_179" class="" fill-opacity="1"/>

<path fill="#7f3303" d="M6.706,1497.212 v-8.372 h-3.6260000000000003 v8.372 h3.6260000000000003 zM18.2,1497.212 v-3.766 h-10.654 v3.766 h10.654 zM18.2,1492.606 v-3.766 h-10.654 v3.766 h10.654 z" id="svg_188" class="" fill-opacity="1"/>
<path fill="#fff" d="M18.2,1493.446 v-0.8400000000000001 h-10.654 v-3.766 h-0.8400000000000001 v8.372 h0.8400000000000001 v-3.766 h10.654 zM23.66,1488.84 v-0.014000000000000002 h-0.8400000000000001 v5.852 h-3.486 v0.8400000000000001 h3.486 v6.16 h-3.486 v0.8400000000000001 h7.8260000000000005 v-0.8400000000000001 h-3.5 v-12.838000000000001 zM13.706,1498.36 h-0.8400000000000001 v3.598 h-9.8 v0.8400000000000001 h4.48 v10.122 h0.8400000000000001 v-10.122 h4.48 v10.122 h0.8400000000000001 v-5.642 h4.578 v-0.8400000000000001 h-4.578 v-8.078 zM22.694,1512.92 v-4.774 h-0.8400000000000001 v4.774 h0.8400000000000001 z" id="svg_187" class=""/>
<path fill="#18a3bf" d="M22.82,1501.678 v-6.16 h-3.486 v6.16 h3.486 zM22.82,1494.678 v-5.838 h-3.486 v5.838 h3.486 zM27.16,1488.84 h-3.5 v12.838000000000001 h3.5 v-12.838000000000001 zM27.16,1507.054 v-4.536 h-7.8260000000000005 v4.536 h7.8260000000000005 z" id="svg_186" class="" fill-opacity="1"/>
<path fill="#d68d35" d="M13.706,1507.278 v5.642 h4.494 v-5.642 h-4.494 zM3.08,1502.798 v10.122 h4.466 v-10.122 h-4.466 zM8.386,1502.798 v10.122 h4.48 v-10.122 h-4.48 zM12.866,1498.36 h0.8400000000000001 v8.078 h4.494 v-8.092 h-15.12 v3.612 h9.786 v-3.598 z" id="svg_185" class="" fill-opacity="1"/>
<path fill="#f2932e" d="M21.854,1508.146 h-2.52 v4.774 h2.52 v-4.774 zM22.694,1508.146 v4.774 h4.466 v-4.774 h-4.466 z" id="svg_184" class="" fill-opacity="1"/>

<path fill="#7f3303" d="M10.08,1538.24 h6.72 v5.04 h-6.72 v-5.04 zM3.36,1543.28 h6.72 v5.04 h-6.72 v-5.04 zM3.36,1550 h6.72 v5.04 h-6.72 v-5.04 zM3.36,1556.72 h6.72 v5.04 h-6.72 v-5.04 zM18.48,1538.24 h6.72 v5.04 h-6.72 v-5.04 z" id="svg_193" class="" fill-opacity="1"/>
<path fill="#ccc" d="M10.08,1548.32 v1.6800000000000002 h6.72 v-1.6800000000000002 h-6.72 zM18.48,1548.32 v1.6800000000000002 h6.72 v-1.6800000000000002 h-6.72 zM10.08,1555.04 v1.6800000000000002 h6.72 v-1.6800000000000002 h-6.72 zM18.48,1555.04 v1.6800000000000002 h6.72 v-1.6800000000000002 h-6.72 zM16.8,1543.28 h1.6800000000000002 v18.48 h-1.6800000000000002 v-18.48 z" id="svg_192" class=""/>
<path fill="#d68d35" d="M8.4,1538.24 h1.6800000000000002 v5.04 h-1.6800000000000002 v-5.04 zM16.8,1538.24 h1.6800000000000002 v5.04 h-1.6800000000000002 v-5.04 zM3.36,1548.32 h6.72 v1.6800000000000002 h-6.72 v-1.6800000000000002 zM3.36,1555.04 h6.72 v1.6800000000000002 h-6.72 v-1.6800000000000002 zM3.36,1541.6 h5.04 v1.6800000000000002 h-5.04 v-1.6800000000000002 zM3.36,1561.76 h6.72 v1.6800000000000002 h-6.72 v-1.6800000000000002 zM1.6800000000000002,1541.6 h1.6800000000000002 v21.84 h-1.6800000000000002 v-21.84 zM8.4,1536.56 h18.48 v1.6800000000000002 h-18.48 v-1.6800000000000002 zM25.2,1538.24 h1.6800000000000002 v5.04 h-1.6800000000000002 v-5.04 z" id="svg_191" class="" fill-opacity="1"/>
<path fill="#18a3bf" d="M10.08,1561.76 h15.12 v1.6800000000000002 h-15.12 v-1.6800000000000002 zM25.2,1543.28 h1.6800000000000002 v20.16 h-1.6800000000000002 v-20.16 z" id="svg_190" class="" fill-opacity="1"/>

<path fill="#18a3bf" d="M0.56,1591.28 h1.6800000000000002 v20.16 h-1.6800000000000002 v-20.16 zM2.24,1609.76 h23.52 v1.6800000000000002 h-23.52 v-1.6800000000000002 zM25.76,1591.28 h1.6800000000000002 v20.16 h-1.6800000000000002 v-20.16 z" id="svg_198" class="" fill-opacity="1"/>
<path fill="#7f3303" d="M2.24,1586.24 h6.72 v5.04 h-6.72 v-5.04 zM10.64,1586.24 h6.72 v5.04 h-6.72 v-5.04 zM19.04,1586.24 h6.72 v5.04 h-6.72 v-5.04 z" id="svg_197" class="" fill-opacity="1"/>
<path fill="#ccc" d="M8.96,1591.28 v18.48 h1.6800000000000002 v-18.48 h-1.6800000000000002 zM2.24,1596.32 h6.72 v1.6800000000000002 h-6.72 v-1.6800000000000002 zM2.24,1603.04 h6.72 v1.6800000000000002 h-6.72 v-1.6800000000000002 zM10.64,1596.32 h6.72 v1.6800000000000002 h-6.72 v-1.6800000000000002 zM10.64,1603.04 h6.72 v1.6800000000000002 h-6.72 v-1.6800000000000002 zM19.04,1596.32 h6.72 v1.6800000000000002 h-6.72 v-1.6800000000000002 zM19.04,1603.04 h6.72 v1.6800000000000002 h-6.72 v-1.6800000000000002 zM17.36,1591.28 h1.6800000000000002 v18.48 h-1.6800000000000002 v-18.48 z" id="svg_196" class=""/>
<path fill="#d68d35" d="M8.96,1586.24 h1.6800000000000002 v5.04 h-1.6800000000000002 v-5.04 zM0.56,1586.24 h1.6800000000000002 v5.04 h-1.6800000000000002 v-5.04 zM0.56,1584.56 h26.88 v1.6800000000000002 h-26.88 v-1.6800000000000002 zM17.36,1586.24 h1.6800000000000002 v5.04 h-1.6800000000000002 v-5.04 zM25.76,1586.24 h1.6800000000000002 v5.04 h-1.6800000000000002 v-5.04 z" id="svg_195" class="" fill-opacity="1"/>
</g></svg>